<?xml version="1.0" encoding="utf-8"?>
<!-- Generator: Adobe Illustrator 16.0.4, SVG Export Plug-In . SVG Version: 6.00 Build 0)  -->
<!DOCTYPE svg PUBLIC "-//W3C//DTD SVG 1.1//EN" "http://www.w3.org/Graphics/SVG/1.1/DTD/svg11.dtd">
<svg version="1.1" id="Layer_1" xmlns="http://www.w3.org/2000/svg" xmlns:xlink="http://www.w3.org/1999/xlink" x="0px" y="0px"
	 width="590px" height="132px" viewBox="0 0 590 132" enable-background="new 0 0 590 132"
	 xml:space="preserve">
<g>
	<path fill-rule="evenodd" clip-rule="evenodd" fill="#ffffff"d="M222.514,64.421h15.056c14.897,17.75,34.549,53.409,54.518,53.409
		c7.606,0,10.935-3.17,10.935-4.438c0-0.635-0.633-0.951-1.268-0.951c-1.742,0.633-3.328,0.633-5.389,0.633
		c-11.727,0-27.733-20.285-49.128-50.555c12.837-3.011,22.821-10.776,22.821-26.466c0-19.81-19.493-25.198-39.62-25.198h-22.504
		c4.596,6.498,5.071,5.864,5.071,17.75v71.475c0,11.885-0.475,11.252-5.071,17.75h19.652c-4.596-6.498-5.072-5.865-5.072-17.75
		V64.421L222.514,64.421z M222.514,59.667V15.61h9.667c19.969,0,28.368,9.667,28.368,21.395c0,16.007-13.154,22.663-29.478,22.663
		H222.514L222.514,59.667z"/>
	<path fill="#ffffff" d="M377.41,96.594c-4.438,3.961-10.459,16.48-35.023,16.48c-15.373,0-16.482-5.229-16.482-17.273V60.776h26.15
		c7.924,0,8.24,0.951,12.52,4.754V51.268c-4.279,3.962-5.863,4.754-12.045,4.754h-26.625V15.61h17.115
		c17.275,0,17.91,2.377,22.506,10.143V10.855h-56.895c7.764,5.071,7.764,9.826,7.764,17.75v71.475c0,8.082,0,12.52-7.764,17.75
		h61.174L377.41,96.594L377.41,96.594z"/>
	<path fill="#ffffff" d="M481.578,99.762c-4.596,5.23-12.361,15.689-32.172,15.689c-28.684,0-49.604-22.662-49.604-51.664
		c0-29.477,19.652-48.97,47.545-48.97c22.662,0,29.793,11.886,33.279,16.482V12.916c-3.01-0.792-19.176-4.438-29.951-4.438
		c-28.053,0-61.65,18.384-61.65,57.053c0,33.44,29.32,54.676,56.42,54.676c18.066,0,23.139-2.537,34.232-6.023L481.578,99.762
		L481.578,99.762z"/>
	<path fill-rule="evenodd" clip-rule="evenodd" fill="#ffffff" d="M539.98,8.478l-39.621,93.344c-4.119,9.668-4.596,10.461-12.043,16.008h17.908
		c-2.061-1.586-3.646-2.061-3.646-5.865c0-1.742,1.109-5.389,2.219-7.924l14.105-33.598h36.449l14.264,35.816
		c0.635,1.586,1.27,3.17,1.27,4.754c0,3.646-1.744,4.914-3.328,6.816h22.504c-5.072-2.695-6.656-2.219-11.412-14.264L539.98,8.478
		L539.98,8.478z M553.609,65.689h-32.646l16.641-39.778L553.609,65.689L553.609,65.689z"/>
	<path fill="#ffffff" d="M36.768,15.61c17.433,0,18.067,2.377,22.663,10.143V10.855H0c7.766,5.071,7.766,9.826,7.766,17.75v71.475
		c0,11.885-0.476,11.252-5.072,17.75h19.652c-4.596-6.498-5.071-5.865-5.071-17.75V62.995h28.21c7.923,0,8.241,0.951,12.52,4.755
		V53.486c-4.279,3.962-5.863,4.754-12.044,4.754H17.274V15.61H36.768L36.768,15.61z"/>
	<path fill="#E73137" d="M91.178,23.517c-2.491-4.024-1.595-9.179,2.112-11.679c3.607-2.433,8.564-1.467,11.408,2.104
		c5.464-2.781,11.437-4.709,17.741-5.608C122.702,3.684,126.295,0,130.712,0c4.432,0,8.052,3.706,8.297,8.376
		c6.174,0.913,12.027,2.813,17.393,5.536c2.884-3.65,7.934-4.603,11.549-2.071c3.633,2.544,4.472,7.664,1.986,11.631
		c3.838,3.647,7.17,7.822,9.88,12.409c4.387-1.584,9.191,0.283,10.92,4.354c1.756,4.139-0.326,9.001-4.656,10.999
		c1.076,4.381,1.646,8.961,1.646,13.675h-8.821c0-26.691-21.637-48.329-48.329-48.329c-26.691,0-48.313,21.637-48.313,48.329h-8.82
		c0-4.703,0.567-9.273,1.638-13.646c-4.296-1.951-6.423-6.714-4.752-10.851c1.676-4.149,6.549-6.116,11.006-4.509
		C84.036,31.327,87.355,27.16,91.178,23.517L91.178,23.517z"/>
	<path fill="#009FE3" d="M79.173,89.91c-2.884-1.168-9.988-4.043-11.531-4.658c-0.696-0.279-1.12-1.379-0.399-2.17l7.114-7.855
		c-0.61-3.348-0.929-6.795-0.929-10.318h8.821c0,26.691,21.637,48.328,48.329,48.328c26.692,0,48.344-21.637,48.344-48.328h8.821
		c0,3.502-0.315,6.932-0.918,10.26c1.938,2.879,5.631,8.359,6.491,9.623c0.421,0.621,0.157,1.77-0.883,2.023l-10.15,2.498
		c-2.801,5.92-6.589,11.281-11.151,15.871c-0.003,3.457-0.006,10.125,0,11.662c0.002,0.75-0.859,1.555-1.862,1.184l-10.009-3.678
		c-6.4,3.719-13.588,6.232-21.251,7.227c-2.039,2.908-5.603,7.994-6.445,9.205c-0.427,0.617-1.596,0.781-2.204-0.098l-6.348-9.125
		c-7.561-1-14.654-3.477-20.982-7.133c-3.372,1.158-9.154,3.146-10.536,3.629c-0.708,0.246-1.75-0.307-1.725-1.375l0.235-11.525
		C85.61,100.727,81.936,95.58,79.173,89.91L79.173,89.91z"/>
</g>
</svg>
