<?xml version="1.0" encoding="utf-8"?>
<!-- Generator: Adobe Illustrator 16.0.4, SVG Export Plug-In . SVG Version: 6.00 Build 0)  -->
<!DOCTYPE svg PUBLIC "-//W3C//DTD SVG 1.1//EN" "http://www.w3.org/Graphics/SVG/1.1/DTD/svg11.dtd">
<svg version="1.1" id="Layer_1" xmlns="http://www.w3.org/2000/svg" xmlns:xlink="http://www.w3.org/1999/xlink" x="0px" y="0px"
	 width="50px" height="50px" viewBox="0 0 50 50" enable-background="new 0 0 50 50" xml:space="preserve">
<g>
	<g>
		<circle fill="#E8B720" cx="21.937" cy="21.956" r="12.219"/>
		<path fill="#E8B720" d="M26.934,7.827h0.201L21.937,0l-5.198,7.827h0.19c1.566-0.56,3.249-0.872,5.008-0.872
			C23.691,6.955,25.37,7.269,26.934,7.827z"/>
		<path fill="#E8B720" d="M15.504,8.416l0.133-0.133l-9.21-1.859l1.858,9.21l0.141-0.141C9.907,12.399,12.41,9.894,15.504,8.416z"/>
		<path fill="#E8B720" d="M7.829,16.899v-0.163l-7.826,5.199l7.826,5.197v-0.129c-0.569-1.576-0.893-3.271-0.893-5.047
			C6.937,20.178,7.262,18.48,7.829,16.899z"/>
		<path fill="#E8B720" d="M35.468,15.515l0.12,0.12l1.858-9.21l-9.21,1.859l0.141,0.141C31.479,9.904,33.987,12.412,35.468,15.515z"
			/>
	</g>
	<g>
		<path fill="#A3A3A3" d="M14.16,23.52c1.347-3.864,5.022-6.636,9.347-6.636c1.205,0,2.362,0.216,3.434,0.612
			c1.58-1.073,3.49-1.701,5.547-1.701c4.754,0,8.727,3.357,9.676,7.833c4.479,0.949,7.834,4.922,7.834,9.679
			c0,5.464-4.43,9.89-9.895,9.89H15.614c-5.464,0-9.89-4.426-9.89-9.89C5.719,28.336,9.385,24.223,14.16,23.52L14.16,23.52z"/>
		<path fill="#FFFFFF" d="M16.705,26.592c0.098-3.671,3.102-6.617,6.801-6.617c1.441,0,2.784,0.449,3.879,1.213
			c1.246-1.411,3.068-2.301,5.107-2.301c3.752,0,6.803,3.045,6.803,6.803c0,0.293-0.02,0.586-0.055,0.872
			c0.287-0.032,0.576-0.055,0.873-0.055c3.757,0,6.809,3.048,6.809,6.806c0,3.756-3.048,6.807-6.809,6.807
			c-3.758,0-20.798,0-24.494,0c-3.758,0-6.804-3.048-6.804-6.807c0-3.754,3.047-6.806,6.804-6.806
			C15.985,26.506,16.35,26.535,16.705,26.592L16.705,26.592z"/>
	</g>
</g>
</svg>
