<?xml version="1.0" encoding="utf-8"?>
<!-- Generator: Adobe Illustrator 16.0.4, SVG Export Plug-In . SVG Version: 6.00 Build 0)  -->
<!DOCTYPE svg PUBLIC "-//W3C//DTD SVG 1.1//EN" "http://www.w3.org/Graphics/SVG/1.1/DTD/svg11.dtd">
<svg version="1.1" id="Layer_1" xmlns="http://www.w3.org/2000/svg" xmlns:xlink="http://www.w3.org/1999/xlink" x="0px" y="0px"
	 width="50px" height="50px" viewBox="0 0 50 50" enable-background="new 0 0 50 50" xml:space="preserve">
<g>
	<g>
		<circle fill="#E8B720" cx="19.102" cy="19.054" r="10.641"/>
		<path fill="#E8B720" d="M23.454,6.75h0.175l-4.527-6.817L14.575,6.75h0.166c1.364-0.487,2.83-0.759,4.361-0.759
			C20.631,5.991,22.092,6.263,23.454,6.75z"/>
		<path fill="#E8B720" d="M13.5,7.262l0.116-0.115L5.595,5.528l1.618,8.021l0.123-0.122C8.625,10.732,10.806,8.55,13.5,7.262z"/>
		<path fill="#E8B720" d="M6.816,14.65v-0.142L0,19.036l6.816,4.527v-0.112c-0.496-1.374-0.777-2.85-0.777-4.396
			C6.039,17.506,6.322,16.028,6.816,14.65z"/>
		<path fill="#E8B720" d="M30.887,13.445l0.104,0.104l1.618-8.021l-8.021,1.619L24.71,7.27
			C27.413,8.558,29.598,10.742,30.887,13.445z"/>
	</g>
	<path fill="#A3A3A3" d="M14.157,21.863c1.347-3.865,5.022-6.637,9.347-6.637c1.205,0,2.361,0.216,3.434,0.612
		c1.58-1.072,3.49-1.701,5.547-1.701c4.752,0,8.728,3.357,9.677,7.834c4.479,0.948,7.834,4.921,7.834,9.679
		c0,5.466-4.433,9.889-9.896,9.889H15.609c-5.464,0-9.888-4.426-9.888-9.889C5.716,26.68,9.382,22.566,14.157,21.863L14.157,21.863z
		"/>
	<path fill="#FFFFFF" d="M16.702,24.935c0.098-3.671,3.102-6.618,6.801-6.618c1.441,0,2.784,0.448,3.877,1.212
		c1.246-1.411,3.07-2.301,5.11-2.301c3.751,0,6.804,3.045,6.804,6.802c0,0.295-0.021,0.586-0.056,0.871
		c0.287-0.037,0.576-0.055,0.873-0.055c3.757,0,6.811,3.048,6.811,6.804c0,3.757-3.048,6.81-6.811,6.81c-3.758,0-20.798,0-24.494,0
		c-3.756,0-6.804-3.049-6.804-6.81c0-3.756,3.048-6.804,6.804-6.804C15.982,24.849,16.347,24.878,16.702,24.935L16.702,24.935z"/>
	<path fill="#4897FF" d="M32.668,41.83c0.41,0.773,0.637,1.661,0.637,2.596c0,3.074-2.481,5.566-5.562,5.566
		c-3.072,0-5.564-2.492-5.564-5.566c0-0.935,0.233-1.82,0.643-2.596l3.412-6.424c0,0,0.516-1.113,1.508-1.113
		c1.039,0,1.525,1.113,1.525,1.113L32.668,41.83L32.668,41.83z"/>
</g>
</svg>
