<?xml version="1.0" encoding="utf-8"?>
<!-- Generator: Adobe Illustrator 16.0.4, SVG Export Plug-In . SVG Version: 6.00 Build 0)  -->
<!DOCTYPE svg PUBLIC "-//W3C//DTD SVG 1.1//EN" "http://www.w3.org/Graphics/SVG/1.1/DTD/svg11.dtd">
<svg version="1.1" id="Layer_1" xmlns="http://www.w3.org/2000/svg" xmlns:xlink="http://www.w3.org/1999/xlink" x="0px" y="0px"
	 width="50px" height="50px" viewBox="0 0 50 50" enable-background="new 0 0 50 50" xml:space="preserve">
<g>
	<g>
		<circle fill="#E8B720" cx="21.984" cy="22" r="12.219"/>
		<path fill="#E8B720" d="M26.98,7.871h0.201l-5.2-7.827l-5.198,7.827h0.19c1.566-0.56,3.249-0.872,5.008-0.872
			C23.739,6.999,25.418,7.312,26.98,7.871z"/>
		<path fill="#E8B720" d="M15.552,8.46l0.133-0.133l-9.21-1.859l1.858,9.21l0.141-0.141C9.955,12.443,12.458,9.938,15.552,8.46z"/>
		<path fill="#E8B720" d="M7.877,16.943V16.78l-7.826,5.198l7.826,5.199v-0.129C7.308,25.47,6.984,23.775,6.984,22
			C6.984,20.222,7.31,18.524,7.877,16.943z"/>
		<path fill="#E8B720" d="M35.516,15.559l0.121,0.12l1.857-9.21l-9.21,1.859l0.141,0.141C31.527,9.948,34.035,12.456,35.516,15.559z
			"/>
	</g>
	<path fill="#A3A3A3" d="M15.008,20.539c1.306-3.745,4.867-6.431,9.057-6.431c1.167,0,2.289,0.209,3.328,0.59
		c1.53-1.039,3.383-1.648,5.375-1.648c4.604,0,8.451,3.262,9.373,7.591c4.342,0.918,7.592,4.77,7.592,9.378
		c0,5.295-4.293,9.58-9.588,9.58H16.416c-5.294,0-9.579-4.289-9.579-9.58C6.829,25.206,10.382,21.219,15.008,20.539L15.008,20.539z"
		/>
	<path fill="#FFFFFF" d="M17.475,23.515c0.095-3.558,3.005-6.413,6.59-6.413c1.396,0,2.697,0.437,3.761,1.176
		c1.205-1.367,2.974-2.231,4.951-2.231c3.631,0,6.592,2.951,6.592,6.593c0,0.286-0.02,0.567-0.053,0.844
		c0.274-0.026,0.559-0.053,0.848-0.053c3.639,0,6.6,2.954,6.6,6.601c0,3.646-2.953,6.592-6.6,6.592c-3.641,0-20.154,0-23.735,0
		c-3.639,0-6.592-2.952-6.592-6.592c0-3.642,2.953-6.601,6.592-6.601C16.777,23.431,17.131,23.459,17.475,23.515L17.475,23.515z"/>
	<path fill="#4897FF" d="M29.273,42.506c0.356,0.675,0.562,1.444,0.562,2.267c0,2.683-2.174,4.854-4.853,4.854
		c-2.68,0-4.847-2.174-4.847-4.854c0-0.812,0.204-1.588,0.551-2.267l2.985-5.603c0,0,0.453-0.967,1.314-0.967
		c0.908,0,1.333,0.967,1.333,0.967L29.273,42.506L29.273,42.506z"/>
	<polygon fill="#4897FF" points="25.357,31.404 27.63,32.232 27.21,29.852 33.018,28.828 33.438,31.209 35.288,29.654 
		39.077,34.171 37.227,35.727 39.499,36.551 37.48,42.094 35.212,41.268 35.63,43.646 29.822,44.67 29.404,42.289 27.55,43.844 
		23.762,39.328 25.611,37.773 23.341,36.947 	"/>
	<polygon fill="#FFFFFF" points="24.987,36.18 26.124,33.051 29.282,34.199 28.697,30.893 31.977,30.314 32.559,33.621 
		35.132,31.462 37.271,34.012 34.697,36.172 37.854,37.318 36.716,40.447 33.561,39.299 34.143,42.605 30.866,43.186 30.279,39.877 
		27.71,42.037 25.568,39.486 28.143,37.326 	"/>
</g>
</svg>
