<?xml version="1.0" encoding="utf-8"?>
<!-- Generator: Adobe Illustrator 16.0.4, SVG Export Plug-In . SVG Version: 6.00 Build 0)  -->
<!DOCTYPE svg PUBLIC "-//W3C//DTD SVG 1.1//EN" "http://www.w3.org/Graphics/SVG/1.1/DTD/svg11.dtd">
<svg version="1.1" id="Layer_1" xmlns="http://www.w3.org/2000/svg" xmlns:xlink="http://www.w3.org/1999/xlink" x="0px" y="0px"
	 width="50px" height="50px" viewBox="0 0 50 50" enable-background="new 0 0 50 50" xml:space="preserve">
<g>
	<g>
		<circle fill="#E8B720" cx="21.934" cy="21.951" r="12.219"/>
		<path fill="#E8B720" d="M26.931,7.822h0.201l-5.198-7.827l-5.198,7.827h0.19c1.566-0.559,3.249-0.871,5.008-0.871
			C23.688,6.951,25.367,7.263,26.931,7.822z"/>
		<path fill="#E8B720" d="M15.501,8.412l0.133-0.133l-9.21-1.859l1.858,9.211l0.141-0.141C9.904,12.394,12.407,9.888,15.501,8.412z"
			/>
		<path fill="#E8B720" d="M7.826,16.894v-0.163L0,21.929l7.826,5.199v-0.129c-0.569-1.578-0.893-3.273-0.893-5.048
			C6.934,20.173,7.259,18.476,7.826,16.894z"/>
		<path fill="#E8B720" d="M35.465,15.509l0.12,0.121l1.858-9.211l-9.21,1.859l0.141,0.141C31.477,9.899,33.984,12.407,35.465,15.509
			z"/>
	</g>
	<path fill="#A3A3A3" d="M14.157,21.715c1.347-3.865,5.022-6.637,9.347-6.637c1.205,0,2.362,0.216,3.434,0.609
		c1.58-1.072,3.49-1.701,5.547-1.701c4.754,0,8.727,3.364,9.676,7.834c4.479,0.948,7.834,4.921,7.834,9.68
		c0,5.464-4.43,9.888-9.895,9.888H15.611c-5.464,0-9.89-4.426-9.89-9.888C5.716,26.531,9.382,22.419,14.157,21.715L14.157,21.715z"
		/>
	<path fill="#FFFFFF" d="M16.702,24.788c0.098-3.671,3.102-6.618,6.801-6.618c1.441,0,2.784,0.45,3.877,1.213
		c1.246-1.411,3.07-2.301,5.109-2.301c3.752,0,6.803,3.045,6.803,6.802c0,0.295-0.02,0.586-0.055,0.873
		c0.284-0.032,0.576-0.055,0.873-0.055c3.757,0,6.809,3.048,6.809,6.809s-3.048,6.804-6.809,6.804c-3.758,0-20.798,0-24.494,0
		c-3.757,0-6.804-3.047-6.804-6.804s3.047-6.809,6.804-6.809C15.982,24.701,16.347,24.73,16.702,24.788L16.702,24.788z"/>
	<polygon fill="#4897FF" points="20.119,32.639 22.325,34.49 22.825,31.653 29.195,32.775 28.693,35.613 31.402,34.628 
		33.613,40.705 30.907,41.691 33.113,43.542 28.957,48.494 26.748,46.644 26.248,49.48 19.88,48.358 20.381,45.52 17.674,46.506 
		15.462,40.429 18.169,39.445 15.962,37.592 	"/>
	<polygon fill="#FFFFFF" points="17.83,37.43 20.282,34.506 23.232,36.98 23.901,33.189 27.66,33.852 26.992,37.645 30.609,36.326 
		31.914,39.912 28.295,41.229 31.246,43.703 28.793,46.628 25.843,44.154 25.175,47.945 21.416,47.282 22.085,43.49 18.465,44.807 
		17.16,41.221 20.778,39.904 	"/>
</g>
</svg>
