<?xml version="1.0" encoding="utf-8"?>
<!-- Generator: Adobe Illustrator 16.0.4, SVG Export Plug-In . SVG Version: 6.00 Build 0)  -->
<!DOCTYPE svg PUBLIC "-//W3C//DTD SVG 1.1//EN" "http://www.w3.org/Graphics/SVG/1.1/DTD/svg11.dtd">
<svg version="1.1" id="Layer_1" xmlns="http://www.w3.org/2000/svg" xmlns:xlink="http://www.w3.org/1999/xlink" x="0px" y="0px"
	 width="50px" height="50px" viewBox="0 0 50 50" enable-background="new 0 0 50 50" xml:space="preserve">
<g>
	<g>
		<circle fill="#E8B720" cx="21.934" cy="21.955" r="12.219"/>
		<path fill="#E8B720" d="M26.932,7.827h0.2L21.934,0l-5.198,7.827h0.19c1.566-0.56,3.249-0.872,5.008-0.872
			C23.688,6.955,25.367,7.269,26.932,7.827z"/>
		<path fill="#E8B720" d="M15.501,8.416l0.133-0.133l-9.21-1.859l1.858,9.21l0.141-0.141C9.904,12.399,12.407,9.894,15.501,8.416z"
			/>
		<path fill="#E8B720" d="M7.826,16.899v-0.163L0,21.934l7.826,5.198v-0.129c-0.569-1.576-0.893-3.272-0.893-5.048
			C6.934,20.178,7.259,18.48,7.826,16.899z"/>
		<path fill="#E8B720" d="M35.465,15.515l0.12,0.12l1.858-9.21l-9.211,1.859l0.142,0.141C31.477,9.904,33.984,12.412,35.465,15.515z
			"/>
	</g>
	<path fill="#A3A3A3" d="M15.688,19.755c1.255-3.603,4.681-6.186,8.71-6.186c1.124,0,2.202,0.202,3.2,0.57
		c1.473-1,3.254-1.585,5.172-1.585c4.432,0,8.131,3.13,9.019,7.301c4.175,0.883,7.301,4.586,7.301,9.021
		c0,5.093-4.128,9.216-9.222,9.216H17.043c-5.092,0-9.217-4.125-9.217-9.216C7.821,24.244,11.238,20.409,15.688,19.755
		L15.688,19.755z"/>
	<path fill="#FFFFFF" d="M18.06,22.617c0.091-3.421,2.891-6.167,6.338-6.167c1.342,0,2.594,0.417,3.616,1.131
		c1.161-1.315,2.86-2.145,4.76-2.145c3.496,0,6.34,2.838,6.34,6.339c0,0.275-0.018,0.547-0.051,0.812
		c0.271-0.033,0.537-0.051,0.814-0.051c3.5,0,6.346,2.838,6.346,6.341c0,3.501-2.842,6.344-6.346,6.344c-3.503,0-19.384,0-22.829,0
		c-3.502,0-6.341-2.84-6.341-6.344c0-3.502,2.84-6.341,6.341-6.341C17.389,22.536,17.729,22.563,18.06,22.617L18.06,22.617z"/>
	<path fill="#4897FF" d="M26.629,43.156c0.338,0.647,0.534,1.394,0.534,2.178c0,2.578-2.09,4.666-4.662,4.666
		c-2.578,0-4.667-2.088-4.667-4.666c0-0.781,0.194-1.521,0.541-2.178l2.86-5.395c0,0,0.436-0.93,1.267-0.93
		c0.873,0,1.282,0.93,1.282,0.93L26.629,43.156L26.629,43.156z"/>
	<path fill="#4897FF" d="M40.605,36.744c0.381,0.723,0.594,1.551,0.594,2.42c0,2.869-2.315,5.188-5.186,5.188
		c-2.865,0-5.188-2.315-5.188-5.188c0-0.869,0.219-1.697,0.6-2.42l3.183-5.985c0,0,0.479-1.034,1.404-1.034
		c0.969,0,1.426,1.034,1.426,1.034L40.605,36.744L40.605,36.744z"/>
</g>
</svg>
