<?xml version="1.0" encoding="utf-8"?>
<!-- Generator: Adobe Illustrator 16.0.4, SVG Export Plug-In . SVG Version: 6.00 Build 0)  -->
<!DOCTYPE svg PUBLIC "-//W3C//DTD SVG 1.1//EN" "http://www.w3.org/Graphics/SVG/1.1/DTD/svg11.dtd">
<svg version="1.1" id="Layer_1" xmlns="http://www.w3.org/2000/svg" xmlns:xlink="http://www.w3.org/1999/xlink" x="0px" y="0px"
	 width="50px" height="50px" viewBox="0 0 50 50" enable-background="new 0 0 50 50" xml:space="preserve">
<g>
	<g>
		<circle fill="#E8B720" cx="21.934" cy="21.956" r="12.219"/>
		<path fill="#E8B720" d="M26.932,7.827h0.2L21.934,0l-5.198,7.827h0.19c1.566-0.56,3.249-0.872,5.008-0.872
			C23.688,6.955,25.367,7.269,26.932,7.827z"/>
		<path fill="#E8B720" d="M15.501,8.416l0.133-0.133l-9.21-1.859l1.858,9.211l0.141-0.141C9.904,12.399,12.407,9.894,15.501,8.416z"
			/>
		<path fill="#E8B720" d="M7.826,16.899v-0.163L0,21.934l7.826,5.199v-0.129c-0.569-1.578-0.893-3.273-0.893-5.048
			C6.934,20.178,7.259,18.481,7.826,16.899z"/>
		<path fill="#E8B720" d="M35.465,15.514l0.12,0.121l1.858-9.211l-9.211,1.859l0.142,0.141
			C31.477,9.904,33.984,12.412,35.465,15.514z"/>
	</g>
	<path fill="#A3A3A3" d="M15.481,19.727c1.253-3.597,4.674-6.184,8.699-6.184c1.121,0,2.2,0.208,3.196,0.569
		c1.472-0.998,3.25-1.583,5.164-1.583c4.42,0,8.118,3.126,9.002,7.291c4.17,0.879,7.293,4.574,7.293,9.004
		c0,5.085-4.123,9.207-9.209,9.207H16.833c-5.085,0-9.202-4.122-9.202-9.207C7.625,24.211,11.037,20.382,15.481,19.727
		L15.481,19.727z"/>
	<path fill="#FFFFFF" d="M17.85,22.586c0.091-3.424,2.887-6.159,6.33-6.159c1.341,0,2.589,0.418,3.609,1.129
		c1.161-1.314,2.857-2.146,4.757-2.146c3.49,0,6.332,2.837,6.332,6.339c0,0.271-0.019,0.546-0.051,0.811
		c0.269-0.034,0.536-0.051,0.812-0.051c3.496,0,6.34,2.835,6.34,6.332s-2.838,6.339-6.34,6.339c-3.496,0-19.355,0-22.797,0
		c-3.494,0-6.332-2.836-6.332-6.339c0-3.502,2.837-6.332,6.332-6.332C17.18,22.506,17.52,22.533,17.85,22.586L17.85,22.586z"/>
	<path fill="#4897FF" d="M42.417,43.16c0.345,0.649,0.537,1.392,0.537,2.184c0,2.566-2.087,4.656-4.66,4.656
		c-2.563,0-4.655-2.083-4.655-4.656c0-0.782,0.192-1.524,0.536-2.184l2.854-5.384c0,0,0.438-0.931,1.265-0.931
		c0.881,0,1.28,0.931,1.28,0.931L42.417,43.16L42.417,43.16z"/>
	<path fill="#4897FF" d="M22.873,39.096c0.381,0.723,0.599,1.547,0.599,2.418c0,2.869-2.318,5.176-5.179,5.176
		c-2.869,0-5.179-2.31-5.179-5.176c0-0.871,0.216-1.695,0.599-2.418l3.174-5.979c0,0,0.484-1.031,1.407-1.031
		c0.97,0,1.422,1.031,1.422,1.031L22.873,39.096L22.873,39.096z"/>
	<polygon fill="#4897FF" points="28.432,29.718 30.484,31.44 30.95,28.801 36.878,29.847 36.413,32.485 38.932,31.569 
		40.988,37.224 38.471,38.144 40.523,39.866 36.654,44.476 34.602,42.753 34.139,45.394 28.208,44.349 28.675,41.708 26.154,42.624 
		24.096,36.968 26.616,36.052 24.562,34.328 	"/>
	<polygon fill="#FFFFFF" points="26.3,34.177 28.583,31.456 31.327,33.759 31.951,30.229 35.447,30.846 34.826,34.376 
		38.191,33.149 39.409,36.487 36.04,37.713 38.786,40.017 36.503,42.737 33.757,40.435 33.137,43.965 29.637,43.347 30.259,39.817 
		26.893,41.044 25.677,37.705 29.044,36.479 	"/>
</g>
</svg>
