<?xml version="1.0" encoding="utf-8"?>
<!-- Generator: Adobe Illustrator 16.0.4, SVG Export Plug-In . SVG Version: 6.00 Build 0)  -->
<!DOCTYPE svg PUBLIC "-//W3C//DTD SVG 1.1//EN" "http://www.w3.org/Graphics/SVG/1.1/DTD/svg11.dtd">
<svg version="1.1" id="Layer_1" xmlns="http://www.w3.org/2000/svg" xmlns:xlink="http://www.w3.org/1999/xlink" x="0px" y="0px"
	 width="50px" height="50px" viewBox="0 0 50 50" enable-background="new 0 0 50 50" xml:space="preserve">
<g>
	<circle fill="#E8B720" cx="21.934" cy="21.955" r="12.219"/>
	<path fill="#E8B720" d="M26.931,7.827h0.201L21.934,0l-5.198,7.827h0.19c1.566-0.56,3.249-0.872,5.008-0.872
		C23.688,6.955,25.367,7.269,26.931,7.827z"/>
	<path fill="#E8B720" d="M15.501,8.416l0.133-0.133l-9.21-1.859l1.858,9.21l0.141-0.141C9.904,12.399,12.407,9.894,15.501,8.416z"/>
	<path fill="#E8B720" d="M7.826,16.899v-0.163L0,21.934l7.826,5.199v-0.129c-0.569-1.578-0.893-3.273-0.893-5.049
		C6.934,20.178,7.259,18.48,7.826,16.899z"/>
	<path fill="#E8B720" d="M35.465,15.515l0.12,0.12l1.858-9.21l-9.21,1.859l0.141,0.141C31.477,9.904,33.984,12.412,35.465,15.515z"
		/>
</g>
<g>
	<path fill="#A3A3A3" d="M15.919,19.425c1.235-3.542,4.603-6.083,8.565-6.083c1.104,0,2.165,0.198,3.147,0.561
		c1.447-0.983,3.199-1.559,5.084-1.559c4.355,0,7.996,3.078,8.865,7.18c4.105,0.869,7.18,4.51,7.18,8.87
		c0,5.008-4.059,9.062-9.066,9.062H17.25c-5.008,0-9.063-4.057-9.063-9.062C8.182,23.84,11.542,20.069,15.919,19.425L15.919,19.425z
		"/>
	<path fill="#FFFFFF" d="M18.251,22.241c0.09-3.365,2.842-6.065,6.233-6.065c1.321,0,2.551,0.412,3.555,1.112
		c1.143-1.293,2.812-2.11,4.682-2.11c3.438,0,6.235,2.792,6.235,6.235c0,0.271-0.019,0.536-0.05,0.799
		c0.262-0.034,0.527-0.05,0.8-0.05c3.442,0,6.241,2.791,6.241,6.237c0,3.442-2.794,6.24-6.241,6.24c-3.442,0-19.062,0-22.449,0
		c-3.444,0-6.235-2.794-6.235-6.24c0-3.446,2.794-6.237,6.235-6.237C17.591,22.162,17.925,22.188,18.251,22.241L18.251,22.241z"/>
	<polygon fill="#4897FF" points="16.767,29.706 18.79,31.406 19.248,28.804 25.084,29.834 24.626,32.432 27.107,31.529 
		29.133,37.098 26.653,38.005 28.676,39.7 24.866,44.236 22.843,42.541 22.385,45.143 16.548,44.113 17.007,41.512 14.527,42.417 
		12.5,36.848 14.98,35.945 12.958,34.248 	"/>
	<polygon fill="#FFFFFF" points="14.669,34.098 16.917,31.418 19.621,33.688 20.233,30.211 23.678,30.82 23.065,34.294 
		26.382,33.088 27.578,36.373 24.261,37.578 26.965,39.852 24.716,42.53 22.013,40.26 21.4,43.736 17.955,43.129 18.568,39.652 
		15.252,40.859 14.056,37.574 17.372,36.365 	"/>
	<polygon fill="#4897FF" points="31.238,37.453 33.387,38.233 32.989,35.98 38.48,35.014 38.877,37.266 40.631,35.795 
		44.215,40.068 42.463,41.538 44.611,42.321 42.705,47.561 40.556,46.779 40.952,49.033 35.462,50 35.062,47.748 33.312,49.219 
		29.729,44.945 31.479,43.476 29.329,42.691 	"/>
	<polygon fill="#FFFFFF" points="30.887,41.969 31.965,39.01 34.947,40.098 34.396,36.967 37.495,36.42 38.048,39.55 40.48,37.508 
		42.506,39.917 40.07,41.961 43.056,43.048 41.979,46.006 38.994,44.918 39.547,48.046 36.445,48.593 35.895,45.466 33.463,47.506 
		31.438,45.096 33.869,43.055 	"/>
</g>
</svg>
