<?xml version="1.0" encoding="utf-8"?>
<!-- Generator: Adobe Illustrator 16.0.4, SVG Export Plug-In . SVG Version: 6.00 Build 0)  -->
<!DOCTYPE svg PUBLIC "-//W3C//DTD SVG 1.1//EN" "http://www.w3.org/Graphics/SVG/1.1/DTD/svg11.dtd">
<svg version="1.1" id="Layer_1" xmlns="http://www.w3.org/2000/svg" xmlns:xlink="http://www.w3.org/1999/xlink" x="0px" y="0px"
	 width="50px" height="50px" viewBox="0 0 50 50" enable-background="new 0 0 50 50" xml:space="preserve">
<g>
	<circle fill="#E8B720" cx="21.786" cy="21.956" r="12.219"/>
	<path fill="#E8B720" d="M26.783,7.827h0.201L21.786,0l-5.198,7.827h0.19c1.566-0.559,3.249-0.871,5.008-0.871
		C23.541,6.956,25.22,7.268,26.783,7.827z"/>
	<path fill="#E8B720" d="M15.354,8.417l0.133-0.133l-9.21-1.859l1.858,9.211l0.141-0.141C9.757,12.399,12.26,9.893,15.354,8.417z"/>
	<path fill="#E8B720" d="M7.679,16.899v-0.163l-7.826,5.198l7.826,5.199v-0.129c-0.569-1.578-0.893-3.273-0.893-5.048
		C6.786,20.178,7.111,18.481,7.679,16.899z"/>
	<path fill="#E8B720" d="M35.316,15.514l0.121,0.121l1.857-9.211l-9.21,1.859l0.142,0.141C31.329,9.904,33.837,12.412,35.316,15.514
		z"/>
	<path fill="#A3A3A3" d="M16.104,18.942C17.308,15.488,20.592,13,24.457,13c1.076,0,2.109,0.204,3.066,0.548
		c1.412-0.958,3.121-1.52,4.959-1.52c4.242,0,7.793,3.001,8.646,7.001c4.003,0.842,7.001,4.39,7.001,8.646
		c0,4.884-3.958,8.841-8.842,8.841H17.402c-4.883,0-8.835-3.957-8.835-8.841C8.56,23.248,11.837,19.571,16.104,18.942L16.104,18.942
		z"/>
	<path fill="#FFFFFF" d="M18.378,21.688c0.087-3.291,2.772-5.914,6.078-5.914c1.288,0,2.487,0.401,3.465,1.084
		c1.114-1.261,2.744-2.06,4.57-2.06c3.349,0,6.079,2.724,6.079,6.087c0,0.261-0.018,0.524-0.049,0.78
		c0.254-0.033,0.518-0.049,0.783-0.049c3.354,0,6.086,2.724,6.086,6.079c0,3.356-2.725,6.088-6.086,6.088
		c-3.357,0-18.592,0-21.895,0c-3.352,0-6.08-2.725-6.08-6.088c0-3.362,2.724-6.079,6.08-6.079
		C17.735,21.61,18.061,21.637,18.378,21.688L18.378,21.688z"/>
	<path fill="#4897FF" d="M41.018,36.77c0.364,0.693,0.568,1.484,0.568,2.32c0,2.756-2.227,4.971-4.97,4.971
		c-2.757,0-4.972-2.218-4.972-4.971c0-0.836,0.207-1.627,0.573-2.32l3.048-5.742c0,0,0.465-0.989,1.351-0.989
		c0.933,0,1.368,0.989,1.368,0.989L41.018,36.77L41.018,36.77z"/>
	<g>
		<polygon fill="#FBF06D" points="13.233,37.52 17.655,22.413 27.005,22.413 25.338,28.514 31.93,28.514 21.857,50 19.756,37.4 		
			"/>
		<polygon fill="#E3303D" points="19.14,24.455 15.813,35.824 21.419,35.719 22.804,44.044 29.124,30.555 23.025,30.555 
			24.688,24.455 		"/>
	</g>
</g>
</svg>
