<?xml version="1.0" encoding="utf-8"?>
<!-- Generator: Adobe Illustrator 16.0.4, SVG Export Plug-In . SVG Version: 6.00 Build 0)  -->
<!DOCTYPE svg PUBLIC "-//W3C//DTD SVG 1.1//EN" "http://www.w3.org/Graphics/SVG/1.1/DTD/svg11.dtd">
<svg version="1.1" id="Layer_1" xmlns="http://www.w3.org/2000/svg" xmlns:xlink="http://www.w3.org/1999/xlink" x="0px" y="0px"
	 width="50px" height="50px" viewBox="0 0 50 50" enable-background="new 0 0 50 50" xml:space="preserve">
<g>
	<g>
		<circle fill="#E8B720" cx="21.934" cy="21.956" r="12.219"/>
		<path fill="#E8B720" d="M26.932,7.827h0.2L21.934,0l-5.198,7.827h0.19c1.566-0.559,3.249-0.871,5.008-0.871
			C23.688,6.956,25.367,7.268,26.932,7.827z"/>
		<path fill="#E8B720" d="M15.501,8.417l0.133-0.133l-9.21-1.859l1.858,9.211l0.141-0.141C9.904,12.399,12.407,9.893,15.501,8.417z"
			/>
		<path fill="#E8B720" d="M7.826,16.899v-0.163L0,21.934l7.826,5.199v-0.129c-0.569-1.578-0.893-3.273-0.893-5.048
			C6.934,20.178,7.259,18.481,7.826,16.899z"/>
		<path fill="#E8B720" d="M35.465,15.514l0.12,0.121l1.858-9.211l-9.211,1.859l0.142,0.141
			C31.477,9.904,33.984,12.412,35.465,15.514z"/>
	</g>
	<path fill="#A3A3A3" d="M12.292,20.699c1.419-4.062,5.282-6.982,9.833-6.982c1.268,0,2.484,0.228,3.611,0.644
		c1.666-1.128,3.676-1.79,5.834-1.79c5.006,0,9.188,3.533,10.186,8.238c4.709,0.997,8.242,5.177,8.242,10.184
		c0,5.749-4.661,10.409-10.41,10.409H13.822c-5.751,0-10.411-4.66-10.411-10.409C3.412,25.766,7.268,21.438,12.292,20.699
		L12.292,20.699z"/>
	<path fill="#ECECEC" d="M14.97,23.93c0.104-3.862,3.265-6.958,7.155-6.958c1.518,0,2.925,0.473,4.083,1.273
		c1.31-1.484,3.228-2.421,5.366-2.421c3.953,0,7.162,3.204,7.162,7.156c0,0.311-0.023,0.617-0.061,0.921
		c0.303-0.039,0.606-0.059,0.92-0.059c3.954,0,7.16,3.205,7.16,7.158c0,3.952-3.206,7.158-7.16,7.158c-3.953,0-21.882,0-25.769,0
		c-3.954,0-7.161-3.206-7.161-7.158c0-3.953,3.207-7.158,7.161-7.158C14.213,23.839,14.596,23.87,14.97,23.93L14.97,23.93z"/>
	<path fill="#A3A3A3" d="M7.493,30.701c1.579-2.57,4.419-4.281,7.66-4.281c4.309,0,7.91,3.023,8.782,7.076l-4.296-2.371
		c0.97-0.355,2.009-0.541,3.09-0.541c4.946,0,8.979,3.997,8.979,8.956s-4.033,8.958-8.979,8.958H8.978C4.03,48.498,0,44.499,0,39.54
		C0,35.088,3.249,31.408,7.493,30.701L7.493,30.701z"/>
	<path fill="#ECECEC" d="M20.751,34.178c0.615-0.225,1.278-0.345,1.973-0.345c3.161,0,5.723,2.554,5.723,5.707
		c0,3.151-2.562,5.712-5.723,5.712c-2.752,0-11.105,0-13.746,0c-3.16,0-5.723-2.557-5.723-5.712c0-3.149,2.564-5.707,5.723-5.707
		c0.22,0,0.437,0.011,0.648,0.034c0.664-2.424,2.886-4.201,5.524-4.201C17.902,29.672,20.198,31.604,20.751,34.178L20.751,34.178z"
		/>
</g>
</svg>
