<?xml version="1.0" encoding="utf-8"?>
<!-- Generator: Adobe Illustrator 16.0.4, SVG Export Plug-In . SVG Version: 6.00 Build 0)  -->
<!DOCTYPE svg PUBLIC "-//W3C//DTD SVG 1.1//EN" "http://www.w3.org/Graphics/SVG/1.1/DTD/svg11.dtd">
<svg version="1.1" id="Layer_1" xmlns="http://www.w3.org/2000/svg" xmlns:xlink="http://www.w3.org/1999/xlink" x="0px" y="0px"
	 width="50px" height="50px" viewBox="0 0 50 50" enable-background="new 0 0 50 50" xml:space="preserve">
<g>
	<circle fill="#E8B720" cx="21.934" cy="21.956" r="12.219"/>
	<path fill="#E8B720" d="M26.932,7.827h0.2L21.934,0l-5.198,7.827h0.19c1.566-0.56,3.249-0.872,5.008-0.872
		C23.688,6.955,25.367,7.269,26.932,7.827z"/>
	<path fill="#E8B720" d="M15.501,8.416l0.133-0.133l-9.21-1.859l1.858,9.211l0.141-0.141C9.904,12.399,12.407,9.893,15.501,8.416z"
		/>
	<path fill="#E8B720" d="M7.826,16.899v-0.163L0,21.934l7.826,5.199v-0.129c-0.569-1.578-0.893-3.273-0.893-5.048
		C6.934,20.178,7.259,18.481,7.826,16.899z"/>
	<path fill="#E8B720" d="M35.465,15.514l0.12,0.121l1.858-9.211l-9.211,1.859l0.142,0.141C31.477,9.904,33.984,12.412,35.465,15.514
		z"/>
	<path fill="#A3A3A3" d="M14.939,17.554c1.297-3.718,4.828-6.385,8.992-6.385c1.159,0,2.271,0.208,3.301,0.586
		c1.521-1.032,3.358-1.636,5.334-1.636c4.576,0,8.397,3.234,9.312,7.537c4.308,0.912,7.535,4.734,7.535,9.313
		c0,5.256-4.263,9.512-9.521,9.512H16.338c-5.256,0-9.519-4.258-9.519-9.512C6.82,22.188,10.346,18.231,14.939,17.554L14.939,17.554
		z"/>
	<path fill="#ECECEC" d="M17.389,20.51c0.094-3.532,2.984-6.367,6.542-6.367c1.388,0,2.674,0.433,3.732,1.167
		c1.198-1.357,2.953-2.214,4.907-2.214c3.615,0,6.55,2.93,6.55,6.544c0,0.28-0.021,0.564-0.054,0.839
		c0.272-0.031,0.556-0.053,0.84-0.053c3.615,0,6.55,2.933,6.55,6.55c0,3.613-2.933,6.545-6.55,6.545c-3.616,0-20.008,0-23.561,0
		c-3.616,0-6.547-2.932-6.547-6.545c0-3.616,2.933-6.55,6.547-6.55C16.696,20.425,17.045,20.455,17.389,20.51L17.389,20.51z"/>
	<path fill="#A3A3A3" d="M10.551,26.7c1.444-2.35,4.041-3.911,7.003-3.911c3.939,0,7.233,2.77,8.03,6.466l-3.927-2.168
		c0.887-0.323,1.835-0.498,2.827-0.498c4.521,0,8.209,3.658,8.209,8.192c0,4.531-3.689,8.188-8.209,8.188H11.91
		c-4.524,0.004-8.209-3.654-8.209-8.188C3.7,30.712,6.669,27.346,10.551,26.7L10.551,26.7z"/>
	<path fill="#ECECEC" d="M22.674,29.879c0.562-0.205,1.17-0.314,1.807-0.314c2.889,0,5.232,2.33,5.232,5.223
		c0,2.882-2.344,5.219-5.232,5.219c-2.519,0-10.155,0-12.57,0c-2.889,0-5.232-2.337-5.232-5.219c0-2.887,2.345-5.223,5.232-5.223
		c0.201,0,0.399,0.015,0.592,0.025c0.608-2.212,2.639-3.837,5.051-3.837C20.068,25.759,22.168,27.525,22.674,29.879L22.674,29.879z"
		/>
	<path fill="#4897FF" d="M22.088,41.096c0.394,0.745,0.617,1.598,0.617,2.498c0,2.963-2.395,5.35-5.353,5.35
		c-2.957,0-5.352-2.387-5.352-5.35c0-0.9,0.224-1.753,0.617-2.498l3.282-6.185c0,0,0.5-1.065,1.453-1.065
		c1.002,0,1.471,1.065,1.471,1.065L22.088,41.096L22.088,41.096z"/>
	<path fill="#4897FF" d="M22.088,42.152c0.394,0.744,0.617,1.598,0.617,2.496c0,2.965-2.395,5.352-5.353,5.352
		C14.395,50,12,47.613,12,44.648c0-0.898,0.224-1.752,0.617-2.496l3.282-6.186c0,0,0.5-1.064,1.453-1.064
		c1.002,0,1.471,1.064,1.471,1.064L22.088,42.152L22.088,42.152z"/>
</g>
</svg>
