<?xml version="1.0" encoding="utf-8"?>
<!-- Generator: Adobe Illustrator 16.0.4, SVG Export Plug-In . SVG Version: 6.00 Build 0)  -->
<!DOCTYPE svg PUBLIC "-//W3C//DTD SVG 1.1//EN" "http://www.w3.org/Graphics/SVG/1.1/DTD/svg11.dtd">
<svg version="1.1" id="Layer_1" xmlns="http://www.w3.org/2000/svg" xmlns:xlink="http://www.w3.org/1999/xlink" x="0px" y="0px"
	 width="50px" height="50px" viewBox="0 0 50 50" enable-background="new 0 0 50 50" xml:space="preserve">
<g>
	<g>
		<circle fill="#E8B720" cx="21.934" cy="21.955" r="12.219"/>
		<path fill="#E8B720" d="M26.932,7.826h0.2L21.934,0l-5.198,7.826h0.19c1.566-0.559,3.249-0.871,5.008-0.871
			C23.688,6.955,25.367,7.268,26.932,7.826z"/>
		<path fill="#E8B720" d="M15.501,8.416l0.133-0.133l-9.21-1.859l1.858,9.211l0.141-0.141C9.904,12.398,12.407,9.893,15.501,8.416z"
			/>
		<path fill="#E8B720" d="M7.826,16.898v-0.163L0,21.934l7.826,5.198v-0.129c-0.569-1.577-0.893-3.272-0.893-5.048
			C6.934,20.178,7.259,18.48,7.826,16.898z"/>
		<path fill="#E8B720" d="M35.465,15.514l0.12,0.121l1.858-9.211l-9.211,1.859l0.142,0.141
			C31.477,9.903,33.984,12.411,35.465,15.514z"/>
	</g>
	<path fill="#A3A3A3" d="M15.944,16.702c1.233-3.538,4.59-6.075,8.556-6.075c1.104,0,2.161,0.198,3.141,0.558
		c1.449-0.981,3.198-1.557,5.072-1.557c4.354,0,7.991,3.081,8.859,7.171c4.098,0.867,7.172,4.504,7.172,8.859
		c0,5.001-4.055,9.05-9.057,9.05H17.271c-5.002,0-9.057-4.052-9.057-9.05C8.216,21.111,11.573,17.346,15.944,16.702L15.944,16.702z"
		/>
	<path fill="#ECECEC" d="M18.273,19.514c0.09-3.361,2.839-6.058,6.225-6.058c1.318,0,2.544,0.412,3.551,1.11
		c1.141-1.292,2.811-2.106,4.67-2.106c3.438,0,6.234,2.789,6.234,6.228c0,0.27-0.023,0.536-0.051,0.797
		c0.262-0.025,0.527-0.05,0.799-0.05c3.439,0,6.234,2.79,6.234,6.233c0,3.443-2.789,6.229-6.234,6.229c-3.444,0-19.038,0-22.419,0
		c-3.439,0-6.228-2.789-6.228-6.229c0-3.438,2.788-6.233,6.228-6.233C17.615,19.434,17.948,19.462,18.273,19.514L18.273,19.514z"/>
	<path fill="#A3A3A3" d="M11.768,25.405c1.374-2.237,3.845-3.719,6.665-3.719c3.747,0,6.882,2.633,7.637,6.15l-3.736-2.062
		c0.849-0.308,1.747-0.474,2.692-0.474c4.298,0,7.812,3.479,7.812,7.794c0,4.315-3.514,7.789-7.812,7.789H13.061
		c-4.305,0.006-7.811-3.475-7.811-7.789C5.25,29.221,8.076,26.02,11.768,25.405L11.768,25.405z"/>
	<path fill="#ECECEC" d="M23.303,28.43c0.535-0.193,1.112-0.311,1.723-0.311c2.746,0,4.976,2.225,4.976,4.975
		c0,2.74-2.23,4.965-4.976,4.965c-2.399,0-9.662,0-11.96,0c-2.745,0-4.975-2.225-4.975-4.965c0-2.742,2.231-4.975,4.975-4.975
		c0.191,0,0.379,0.02,0.565,0.031c0.577-2.104,2.51-3.649,4.806-3.649C20.824,24.509,22.822,26.189,23.303,28.43L23.303,28.43z"/>
	<path fill="#4897FF" d="M32.324,42.33c0.34,0.637,0.533,1.363,0.533,2.141c0,2.531-2.055,4.584-4.586,4.584
		c-2.533,0-4.582-2.053-4.582-4.584c0-0.77,0.192-1.5,0.521-2.141l2.82-5.293c0,0,0.427-0.913,1.238-0.913
		c0.856,0,1.264,0.913,1.264,0.913L32.324,42.33L32.324,42.33z"/>
	<polygon fill="#4897FF" points="28.625,32.135 30.771,32.916 30.375,30.666 35.861,29.701 36.258,31.949 38.008,30.48 
		41.586,34.748 39.836,36.217 41.984,36.996 40.078,42.232 37.934,41.451 38.328,43.699 32.843,44.666 32.447,42.417 30.697,43.885 
		27.117,39.619 28.866,38.15 26.721,37.37 	"/>
	<polygon fill="#FFFFFF" points="28.273,36.645 29.35,33.689 32.332,34.773 31.781,31.65 34.877,31.104 35.428,34.229 
		37.859,32.188 39.879,34.596 37.449,36.637 40.43,37.723 39.354,40.676 36.373,39.591 36.923,42.717 33.829,43.262 33.275,40.139 
		30.848,42.178 28.825,39.77 31.257,37.729 	"/>
</g>
</svg>
