<?xml version="1.0" encoding="utf-8"?>
<!-- Generator: Adobe Illustrator 16.0.4, SVG Export Plug-In . SVG Version: 6.00 Build 0)  -->
<!DOCTYPE svg PUBLIC "-//W3C//DTD SVG 1.1//EN" "http://www.w3.org/Graphics/SVG/1.1/DTD/svg11.dtd">
<svg version="1.1" id="Layer_1" xmlns="http://www.w3.org/2000/svg" xmlns:xlink="http://www.w3.org/1999/xlink" x="0px" y="0px"
	 width="50px" height="50px" viewBox="0 0 50 50" enable-background="new 0 0 50 50" xml:space="preserve">
<g>
	<g>
		<circle fill="#E8B720" cx="22.323" cy="21.955" r="12.219"/>
		<path fill="#E8B720" d="M27.32,7.826h0.201L22.323,0l-5.198,7.826h0.19c1.566-0.559,3.249-0.871,5.008-0.871
			C24.078,6.955,25.757,7.268,27.32,7.826z"/>
		<path fill="#E8B720" d="M15.891,8.416l0.133-0.133l-9.21-1.859l1.858,9.211l0.141-0.141C10.294,12.398,12.797,9.893,15.891,8.416z
			"/>
		<path fill="#E8B720" d="M8.216,16.898v-0.163L0.39,21.934l7.826,5.198v-0.129c-0.569-1.577-0.893-3.272-0.893-5.048
			C7.323,20.178,7.648,18.48,8.216,16.898z"/>
		<path fill="#E8B720" d="M35.854,15.514l0.121,0.121l1.857-9.211l-9.21,1.859l0.142,0.141
			C31.866,9.903,34.374,12.411,35.854,15.514z"/>
	</g>
	<path fill="#A3A3A3" d="M12.776,18.466c1.363-3.912,5.078-6.717,9.459-6.717c1.219,0,2.389,0.219,3.474,0.619
		c1.602-1.086,3.535-1.723,5.609-1.723c4.813,0,8.836,3.4,9.797,7.928c4.529,0.959,7.928,4.98,7.928,9.797
		c0,5.528-4.482,10.011-10.014,10.011H14.247c-5.53,0-10.014-4.48-10.014-10.011C4.232,23.34,7.943,19.178,12.776,18.466
		L12.776,18.466z"/>
	<path fill="#ECECEC" d="M15.351,21.575c0.099-3.715,3.139-6.697,6.883-6.697c1.458,0,2.812,0.456,3.925,1.229
		c1.261-1.428,3.106-2.329,5.163-2.329c3.802,0,6.891,3.082,6.891,6.884c0,0.299-0.023,0.594-0.056,0.885
		c0.29-0.036,0.583-0.056,0.884-0.056c3.801,0,6.891,3.083,6.891,6.886c0,3.803-3.086,6.887-6.891,6.887c-3.807,0-21.049,0-24.79,0
		c-3.803,0-6.885-3.084-6.885-6.887c0-3.803,3.083-6.886,6.885-6.886C14.623,21.486,14.992,21.518,15.351,21.575L15.351,21.575z"/>
	<path fill="#A3A3A3" d="M8.159,28.088c1.52-2.473,4.251-4.119,7.367-4.119c4.143,0,7.609,2.908,8.446,6.806l-4.132-2.278
		c0.936-0.341,1.931-0.524,2.974-0.524c4.756,0,8.638,3.85,8.638,8.618s-3.884,8.617-8.638,8.617H9.588
		c-4.76,0-8.636-3.851-8.636-8.617C0.952,32.309,4.076,28.768,8.159,28.088L8.159,28.088z"/>
	<path fill="#ECECEC" d="M20.913,31.432c0.591-0.216,1.229-0.332,1.9-0.332c3.039,0,5.503,2.457,5.503,5.49
		c0,3.031-2.467,5.49-5.503,5.49c-2.649,0-10.682,0-13.223,0c-3.037,0-5.503-2.457-5.503-5.49S6.554,31.1,9.59,31.1
		c0.211,0,0.419,0.012,0.625,0.03c0.64-2.329,2.775-4.039,5.313-4.039C18.172,27.098,20.38,28.955,20.913,31.432L20.913,31.432z"/>
	<polygon fill="#4897FF" points="29.447,32.957 31.68,34.83 32.188,31.957 38.634,33.094 38.127,35.967 40.866,34.969 
		43.104,41.119 40.365,42.113 42.6,43.99 38.393,49.002 36.159,47.127 35.652,50 29.205,48.863 29.714,45.992 26.973,46.99 
		24.735,40.84 27.477,39.844 25.241,37.967 	"/>
	<polygon fill="#FFFFFF" points="27.131,37.805 29.613,34.844 32.598,37.35 33.275,33.512 37.08,34.184 36.402,38.02 40.064,36.688 
		41.387,40.314 37.723,41.648 40.711,44.154 38.227,47.113 35.241,44.607 34.564,48.445 30.76,47.773 31.438,43.938 27.775,45.27 
		26.454,41.643 30.115,40.309 	"/>
</g>
</svg>
