<?xml version="1.0" encoding="utf-8"?>
<!-- Generator: Adobe Illustrator 16.0.4, SVG Export Plug-In . SVG Version: 6.00 Build 0)  -->
<!DOCTYPE svg PUBLIC "-//W3C//DTD SVG 1.1//EN" "http://www.w3.org/Graphics/SVG/1.1/DTD/svg11.dtd">
<svg version="1.1" id="Layer_1" xmlns="http://www.w3.org/2000/svg" xmlns:xlink="http://www.w3.org/1999/xlink" x="0px" y="0px"
	 width="50px" height="50px" viewBox="0 0 50 50" enable-background="new 0 0 50 50" xml:space="preserve">
<g>
	<circle fill="#E8B720" cx="21.934" cy="21.956" r="12.219"/>
	<path fill="#E8B720" d="M26.932,7.827h0.2L21.934,0l-5.198,7.827h0.19c1.566-0.559,3.249-0.871,5.008-0.871
		C23.688,6.956,25.367,7.268,26.932,7.827z"/>
	<path fill="#E8B720" d="M15.501,8.417l0.133-0.133l-9.21-1.859l1.858,9.211l0.141-0.141C9.904,12.399,12.407,9.893,15.501,8.417z"
		/>
	<path fill="#E8B720" d="M7.826,16.899v-0.163L0,21.934l7.826,5.199v-0.129c-0.569-1.578-0.893-3.273-0.893-5.048
		C6.934,20.178,7.259,18.481,7.826,16.899z"/>
	<path fill="#E8B720" d="M35.465,15.514l0.12,0.121l1.858-9.211l-9.211,1.859l0.142,0.141C31.477,9.904,33.984,12.412,35.465,15.514
		z"/>
	<path fill="#A3A3A3" d="M16.217,16.694c1.234-3.536,4.589-6.072,8.551-6.072c1.102,0,2.16,0.198,3.141,0.56
		c1.446-0.981,3.194-1.556,5.069-1.556c4.354,0,7.985,3.073,8.854,7.167C45.93,17.66,49,21.295,49,25.648
		c0,5.002-4.053,9.052-9.051,9.052H17.544c-5.001,0-9.053-4.05-9.053-9.052C8.495,21.102,11.848,17.338,16.217,16.694L16.217,16.694
		z"/>
	<path fill="#ECECEC" d="M18.545,19.505c0.089-3.359,2.837-6.055,6.222-6.055c1.32,0,2.543,0.41,3.549,1.11
		c1.141-1.291,2.811-2.105,4.668-2.105c3.438,0,6.229,2.787,6.229,6.224c0,0.27-0.021,0.537-0.051,0.797
		c0.266-0.034,0.525-0.05,0.799-0.05c3.438,0,6.229,2.787,6.229,6.224c0,3.438-2.787,6.229-6.229,6.229c-3.439,0-19.027,0-22.408,0
		c-3.438,0-6.227-2.786-6.227-6.229c0-3.438,2.789-6.224,6.227-6.224C17.887,19.425,18.22,19.453,18.545,19.505L18.545,19.505z"/>
	<path fill="#A3A3A3" d="M12.042,25.394c1.374-2.236,3.843-3.725,6.661-3.725c3.747,0,6.878,2.631,7.635,6.153l-3.735-2.062
		c0.847-0.308,1.747-0.474,2.691-0.474c4.295,0,7.808,3.479,7.808,7.791s-3.513,7.784-7.808,7.784h-11.96
		c-4.303,0.007-7.808-3.473-7.808-7.784C5.528,29.207,8.352,26.007,12.042,25.394L12.042,25.394z"/>
	<path fill="#ECECEC" d="M23.573,28.418c0.534-0.195,1.111-0.303,1.718-0.303c2.744,0,4.975,2.221,4.975,4.965
		c0,2.74-2.229,4.969-4.975,4.969c-2.396,0-9.656,0-11.955,0c-2.744,0-4.973-2.223-4.973-4.969c0-2.74,2.23-4.965,4.973-4.965
		c0.191,0,0.379,0.012,0.563,0.031c0.577-2.105,2.509-3.649,4.804-3.649C21.095,24.497,23.092,26.178,23.573,28.418L23.573,28.418z"
		/>
	<path fill="#4897FF" d="M43.504,39.736c0.338,0.638,0.529,1.361,0.529,2.143c0,2.527-2.053,4.58-4.578,4.58
		c-2.529,0-4.58-2.053-4.58-4.58c0-0.771,0.189-1.501,0.525-2.143l2.812-5.286c0,0,0.429-0.916,1.244-0.916
		c0.854,0,1.25,0.916,1.25,0.916L43.504,39.736L43.504,39.736z"/>
	<path fill="#4897FF" d="M23.719,42.534c0.375,0.712,0.582,1.521,0.582,2.377c0,2.81-2.273,5.089-5.091,5.089
		c-2.811,0-5.091-2.279-5.091-5.089c0-0.854,0.214-1.665,0.589-2.377l3.123-5.88c0,0,0.471-1.018,1.375-1.018
		c0.953,0,1.402,1.018,1.402,1.018L23.719,42.534L23.719,42.534z"/>
	<polygon fill="#4897FF" points="29.107,28.479 31.127,30.172 31.584,27.577 37.412,28.605 36.953,31.2 39.43,30.299 41.453,35.857 
		38.977,36.76 40.996,38.454 37.193,42.986 35.174,41.294 34.717,43.889 28.889,42.857 29.348,40.266 26.87,41.167 24.848,35.605 
		27.325,34.704 25.305,33.012 	"/>
	<polygon fill="#FFFFFF" points="27.014,32.859 29.258,30.188 31.955,32.45 32.566,28.98 36.006,29.588 35.395,33.057 
		38.705,31.852 39.898,35.137 36.588,36.34 39.289,38.604 37.043,41.277 34.346,39.014 33.73,42.484 30.293,41.878 30.906,38.406 
		27.596,39.611 26.4,36.331 29.711,35.126 	"/>
</g>
</svg>
