<?xml version="1.0" encoding="utf-8"?>
<!-- Generator: Adobe Illustrator 16.0.4, SVG Export Plug-In . SVG Version: 6.00 Build 0)  -->
<!DOCTYPE svg PUBLIC "-//W3C//DTD SVG 1.1//EN" "http://www.w3.org/Graphics/SVG/1.1/DTD/svg11.dtd">
<svg version="1.1" id="Layer_1" xmlns="http://www.w3.org/2000/svg" xmlns:xlink="http://www.w3.org/1999/xlink" x="0px" y="0px"
	 width="50px" height="50px" viewBox="0 0 50 50" enable-background="new 0 0 50 50" xml:space="preserve">
<g>
	<g>
		<circle fill="#E8B720" cx="21.934" cy="21.955" r="12.219"/>
		<path fill="#E8B720" d="M26.932,7.827h0.2L21.934,0l-5.198,7.827h0.19c1.566-0.56,3.249-0.872,5.008-0.872
			C23.688,6.955,25.367,7.268,26.932,7.827z"/>
		<path fill="#E8B720" d="M15.501,8.416l0.133-0.133l-9.21-1.859l1.858,9.21l0.141-0.141C9.904,12.399,12.407,9.893,15.501,8.416z"
			/>
		<path fill="#E8B720" d="M7.826,16.898v-0.163L0,21.934l7.826,5.198v-0.129c-0.569-1.577-0.893-3.272-0.893-5.048
			C6.934,20.177,7.259,18.48,7.826,16.898z"/>
		<path fill="#E8B720" d="M35.465,15.514l0.12,0.12l1.858-9.21l-9.211,1.859l0.142,0.141C31.477,9.903,33.984,12.411,35.465,15.514z
			"/>
	</g>
	<path fill="#A3A3A3" d="M15.096,17.281c1.276-3.66,4.751-6.286,8.851-6.286c1.141,0,2.235,0.205,3.25,0.581
		c1.498-1.016,3.31-1.611,5.25-1.611c4.507,0,8.269,3.181,9.166,7.419c4.238,0.897,7.421,4.66,7.421,9.167
		c0,5.174-4.195,9.369-9.369,9.369H16.47c-5.176,0-9.371-4.195-9.371-9.369C7.101,21.842,10.573,17.947,15.096,17.281L15.096,17.281
		z"/>
	<path fill="#ECECEC" d="M17.505,20.19c0.093-3.477,2.937-6.268,6.441-6.268c1.365,0,2.632,0.425,3.673,1.149
		c1.18-1.337,2.908-2.181,4.832-2.181c3.559,0,6.447,2.884,6.447,6.443c0,0.279-0.021,0.555-0.051,0.825
		c0.271-0.034,0.545-0.052,0.825-0.052c3.56,0,6.449,2.884,6.449,6.442c0,3.558-2.888,6.443-6.449,6.443s-19.698,0-23.196,0
		c-3.559,0-6.445-2.886-6.445-6.443c0-3.559,2.886-6.442,6.445-6.442C16.823,20.108,17.169,20.136,17.505,20.19L17.505,20.19z"/>
	<path fill="#A3A3A3" d="M10.775,26.284c1.422-2.313,3.977-3.854,6.894-3.854c3.877,0,7.121,2.723,7.903,6.37l-3.866-2.134
		c0.875-0.318,1.807-0.488,2.784-0.488c4.449,0,8.082,3.6,8.082,8.062c0,4.464-3.635,8.064-8.083,8.064H12.112
		c-4.454,0-8.082-3.601-8.082-8.064C4.03,30.234,6.953,26.922,10.775,26.284L10.775,26.284z"/>
	<path fill="#ECECEC" d="M22.71,29.414c0.553-0.202,1.15-0.311,1.779-0.311c2.843,0,5.152,2.299,5.152,5.137
		c0,2.837-2.312,5.139-5.152,5.139c-2.479,0-9.996,0-12.375,0c-2.842,0-5.149-2.302-5.149-5.139c0-2.836,2.309-5.137,5.149-5.137
		c0.198,0,0.393,0.01,0.584,0.029c0.599-2.183,2.598-3.782,4.972-3.782C20.145,25.358,22.211,27.096,22.71,29.414L22.71,29.414z"/>
	<polygon fill="#4897FF" points="14.132,34.051 16.221,35.805 16.695,33.115 22.727,34.18 22.253,36.867 24.816,35.934 
		26.911,41.689 24.347,42.623 26.438,44.376 22.501,49.068 20.411,47.312 19.937,50 13.905,48.936 14.379,46.25 11.816,47.184 
		9.721,41.428 12.285,40.495 10.194,38.742 	"/>
	<polygon fill="#FFFFFF" points="11.963,38.587 14.286,35.818 17.08,38.162 17.712,34.57 21.272,35.199 20.639,38.789 
		24.066,37.542 25.303,40.938 21.876,42.186 24.669,44.531 22.346,47.299 19.552,44.954 18.918,48.546 15.359,47.92 15.993,44.326 
		12.565,45.572 11.329,42.178 14.757,40.932 	"/>
	<polygon fill="#4897FF" points="29.336,35.527 31.557,36.335 31.146,34.008 36.822,33.008 37.232,35.335 39.041,33.814 
		42.748,38.229 40.936,39.75 43.156,40.557 41.186,45.975 38.965,45.164 39.375,47.492 33.699,48.494 33.289,46.166 31.479,47.686 
		27.775,43.27 29.586,41.75 27.365,40.941 	"/>
	<polygon fill="#FFFFFF" points="28.973,40.191 30.084,37.135 33.17,38.258 32.602,35.025 35.803,34.463 36.373,37.693 
		38.889,35.584 40.979,38.077 38.465,40.186 41.551,41.307 40.438,44.363 37.352,43.242 37.922,46.475 34.719,47.039 34.148,43.807 
		31.633,45.917 29.545,43.426 32.057,41.314 	"/>
</g>
</svg>
