<?xml version="1.0" encoding="utf-8"?>
<!-- Generator: Adobe Illustrator 16.0.4, SVG Export Plug-In . SVG Version: 6.00 Build 0)  -->
<!DOCTYPE svg PUBLIC "-//W3C//DTD SVG 1.1//EN" "http://www.w3.org/Graphics/SVG/1.1/DTD/svg11.dtd">
<svg version="1.1" id="Layer_1" xmlns="http://www.w3.org/2000/svg" xmlns:xlink="http://www.w3.org/1999/xlink" x="0px" y="0px"
	 width="50px" height="50px" viewBox="0 0 50 50" enable-background="new 0 0 50 50" xml:space="preserve">
<g>
	<circle fill="#E8B720" cx="21.934" cy="21.955" r="12.219"/>
	<path fill="#E8B720" d="M26.932,7.827h0.2L21.934,0l-5.198,7.827h0.19c1.566-0.56,3.249-0.872,5.008-0.872
		C23.688,6.955,25.367,7.269,26.932,7.827z"/>
	<path fill="#E8B720" d="M15.501,8.416l0.133-0.133l-9.21-1.859l1.858,9.21l0.141-0.141C9.904,12.399,12.407,9.894,15.501,8.416z"/>
	<path fill="#E8B720" d="M7.826,16.899v-0.163L0,21.934l7.826,5.199v-0.129c-0.569-1.578-0.893-3.273-0.893-5.049
		C6.934,20.178,7.259,18.48,7.826,16.899z"/>
	<path fill="#E8B720" d="M35.465,15.515l0.12,0.12l1.858-9.21l-9.211,1.859l0.142,0.141C31.477,9.904,33.984,12.412,35.465,15.515z"
		/>
	<path fill="#A3A3A3" d="M14.975,17.49c1.292-3.705,4.807-6.362,8.959-6.362c1.155,0,2.263,0.208,3.291,0.587
		c1.514-1.028,3.348-1.63,5.312-1.63c4.562,0,8.367,3.219,9.275,7.509c4.291,0.909,7.51,4.717,7.51,9.278
		c0,5.237-4.244,9.483-9.48,9.483H16.365c-5.237,0-9.484-4.246-9.484-9.483C6.884,22.106,10.398,18.163,14.975,17.49L14.975,17.49z"
		/>
	<path fill="#ECECEC" d="M17.414,20.435c0.095-3.519,2.973-6.343,6.52-6.343c1.382,0,2.664,0.431,3.718,1.163
		c1.193-1.354,2.938-2.207,4.89-2.207c3.603,0,6.528,2.919,6.528,6.52c0,0.283-0.023,0.562-0.053,0.837
		c0.271-0.036,0.553-0.053,0.836-0.053c3.603,0,6.526,2.919,6.526,6.521c0,3.602-2.923,6.521-6.526,6.521
		c-3.604,0-19.938,0-23.479,0c-3.602,0-6.521-2.922-6.521-6.521c0-3.602,2.92-6.521,6.521-6.521
		C16.724,20.351,17.074,20.378,17.414,20.435L17.414,20.435z"/>
	<path fill="#A3A3A3" d="M10.603,26.604c1.439-2.338,4.026-3.898,6.977-3.898c3.924,0,7.207,2.757,8,6.443l-3.916-2.156
		c0.889-0.324,1.831-0.497,2.819-0.497c4.501,0,8.18,3.646,8.18,8.164c0,4.515-3.681,8.157-8.18,8.157H11.956
		c-4.508,0-8.18-3.646-8.18-8.157C3.777,30.6,6.735,27.246,10.603,26.604L10.603,26.604z"/>
	<path fill="#ECECEC" d="M22.682,29.771c0.56-0.205,1.165-0.317,1.802-0.317c2.874,0,5.209,2.329,5.209,5.202
		c0,2.869-2.336,5.199-5.209,5.199c-2.512,0-10.117,0-12.524,0c-2.874,0-5.21-2.33-5.21-5.199c0-2.872,2.336-5.202,5.21-5.202
		c0.2,0,0.397,0.012,0.592,0.032c0.606-2.209,2.629-3.828,5.032-3.828C20.085,25.664,22.177,27.424,22.682,29.771L22.682,29.771z"/>
	<path fill="#4897FF" d="M22.097,42.18c0.393,0.744,0.617,1.594,0.617,2.488c0,2.943-2.389,5.332-5.333,5.332
		c-2.944,0-5.333-2.389-5.333-5.332c0-0.896,0.224-1.744,0.617-2.488l3.27-6.16c0,0,0.499-1.065,1.448-1.065
		c0.999,0,1.465,1.065,1.465,1.065L22.097,42.18L22.097,42.18z"/>
	<polygon fill="#FBF06D" points="23.07,36.615 27.814,20.412 37.84,20.412 36.055,26.955 43.121,26.955 32.32,50 30.066,36.486 	"/>
	<polygon fill="#E3303D" points="29.406,22.602 25.838,34.795 31.852,34.684 33.336,43.613 40.115,29.145 33.572,29.145 
		35.355,22.602 	"/>
</g>
</svg>
