<?xml version="1.0" encoding="utf-8"?>
<!-- Generator: Adobe Illustrator 16.0.4, SVG Export Plug-In . SVG Version: 6.00 Build 0)  -->
<!DOCTYPE svg PUBLIC "-//W3C//DTD SVG 1.1//EN" "http://www.w3.org/Graphics/SVG/1.1/DTD/svg11.dtd">
<svg version="1.1" id="Layer_1" xmlns="http://www.w3.org/2000/svg" xmlns:xlink="http://www.w3.org/1999/xlink" x="0px" y="0px"
	 width="50px" height="50px" viewBox="0 0 50 50" enable-background="new 0 0 50 50" xml:space="preserve">
<g>
	<path fill="#8F8F8F" d="M9.53,9.286c1.523-4.363,5.671-7.495,10.554-7.495c1.36,0,2.665,0.244,3.875,0.688
		c1.784-1.207,3.943-1.916,6.262-1.916c5.368,0,9.854,3.796,10.926,8.845c5.058,1.068,8.847,5.556,8.847,10.927
		c0,6.17-4.996,11.167-11.173,11.167H11.172C5.003,31.508,0,26.506,0,20.337C0,14.724,4.138,10.079,9.53,9.286L9.53,9.286z"/>
	<path fill="#CECECE" d="M12.404,12.753c0.109-4.145,3.504-7.47,7.678-7.47c1.632,0,3.143,0.509,4.379,1.371
		c1.407-1.593,3.467-2.602,5.766-2.602c4.242,0,7.685,3.441,7.685,7.682c0,0.329-0.022,0.662-0.062,0.985
		c0.319-0.04,0.646-0.062,0.982-0.062c4.238,0,7.684,3.441,7.684,7.686c0,4.241-3.441,7.683-7.684,7.683c-4.243,0-23.485,0-27.658,0
		c-4.239,0-7.683-3.439-7.683-7.683c0-4.243,3.441-7.686,7.683-7.686C11.591,12.655,12.002,12.688,12.404,12.753L12.404,12.753z"/>
	<path fill="#8F8F8F" d="M10.36,23.806c1.696-2.758,4.744-4.596,8.22-4.596c4.622,0,8.488,3.249,9.425,7.593l-4.611-2.543
		c1.038-0.381,2.154-0.585,3.314-0.585c5.31,0,9.636,4.294,9.636,9.613s-4.326,9.614-9.636,9.614H11.955
		c-5.31,0-9.635-4.295-9.635-9.614C2.32,28.514,5.806,24.562,10.36,23.806L10.36,23.806z"/>
	<path fill="#CECECE" d="M24.588,27.535c0.659-0.239,1.372-0.371,2.116-0.371c3.394,0,6.146,2.742,6.146,6.125
		c0,3.382-2.752,6.127-6.146,6.127c-2.952,0-11.917,0-14.75,0c-3.394,0-6.145-2.738-6.145-6.127c0-3.381,2.752-6.125,6.145-6.125
		c0.231,0,0.464,0.013,0.692,0.034c0.714-2.597,3.095-4.503,5.928-4.503C21.529,22.701,23.995,24.772,24.588,27.535L24.588,27.535z"
		/>
	<path fill="#4897FF" d="M31.83,41.705c0.418,0.785,0.656,1.685,0.656,2.643c0,3.119-2.533,5.652-5.656,5.652
		s-5.648-2.533-5.648-5.652c0-0.949,0.237-1.854,0.642-2.643l3.479-6.529c0,0,0.527-1.125,1.531-1.125
		c1.057,0,1.557,1.125,1.557,1.125L31.83,41.705L31.83,41.705z"/>
	<polygon fill="#4897FF" points="27.266,26.885 29.913,27.85 29.425,25.074 36.191,23.883 36.68,26.656 38.837,24.846 
		43.252,30.107 41.096,31.92 43.743,32.882 41.393,39.34 38.748,38.376 39.234,41.148 32.469,42.342 31.98,39.568 29.82,41.379 
		25.406,36.117 27.562,34.305 24.916,33.343 	"/>
	<polygon fill="#FFFFFF" points="26.834,32.448 28.159,28.803 31.838,30.143 31.158,26.288 34.979,25.611 35.654,29.468 
		38.654,26.951 41.146,29.922 38.15,32.438 41.824,33.777 40.5,37.421 36.822,36.082 37.501,39.938 33.684,40.611 33.002,36.758 
		30.006,39.273 27.514,36.302 30.51,33.785 	"/>
</g>
</svg>
