<?xml version="1.0" encoding="utf-8"?>
<!-- Generator: Adobe Illustrator 16.0.4, SVG Export Plug-In . SVG Version: 6.00 Build 0)  -->
<!DOCTYPE svg PUBLIC "-//W3C//DTD SVG 1.1//EN" "http://www.w3.org/Graphics/SVG/1.1/DTD/svg11.dtd">
<svg version="1.1" id="Layer_1" xmlns="http://www.w3.org/2000/svg" xmlns:xlink="http://www.w3.org/1999/xlink" x="0px" y="0px"
	 width="50.0px" height="50.0px" viewBox="0 0 34.811 36.182" enable-background="new 0 0 34.811 36.182" xml:space="preserve">
<g>
	<path fill="#8F8F8F" d="M6.635,6.073c1.06-3.038,3.948-5.221,7.348-5.221c0.947,0,1.855,0.17,2.698,0.481
		C17.923,0.494,19.426,0,21.041,0c3.737,0,6.861,2.64,7.606,6.158c3.521,0.741,6.159,3.864,6.159,7.604
		c0,4.295-3.479,7.777-7.778,7.777H7.778C3.483,21.544,0,18.062,0,13.767C0,9.859,2.881,6.625,6.635,6.073L6.635,6.073z"/>
	<path fill="#CECECE" d="M8.636,8.487c0.076-2.886,2.44-5.198,5.346-5.198c1.136,0,2.188,0.353,3.049,0.954
		c0.98-1.109,2.413-1.812,4.013-1.812c2.954,0,5.35,2.396,5.35,5.348c0,0.232-0.016,0.462-0.044,0.688
		c0.227-0.029,0.452-0.044,0.688-0.044c2.951,0,5.349,2.395,5.349,5.348s-2.396,5.352-5.349,5.352c-2.954,0-16.351,0-19.255,0
		c-2.952,0-5.35-2.396-5.35-5.352S4.826,8.42,7.78,8.42C8.07,8.419,8.356,8.442,8.636,8.487L8.636,8.487z"/>
	<path fill="#8F8F8F" d="M7.213,16.182c1.181-1.92,3.303-3.2,5.723-3.2c3.218,0,5.91,2.265,6.562,5.288l-3.21-1.771
		c0.723-0.268,1.5-0.407,2.307-0.407c3.697,0,6.708,2.989,6.708,6.693c0,3.705-3.011,6.69-6.708,6.69H8.323
		c-3.697,0-6.708-2.985-6.708-6.69C1.615,19.459,4.042,16.71,7.213,16.182L7.213,16.182z"/>
	<path fill="#CECECE" d="M17.119,18.779c0.459-0.167,0.955-0.259,1.473-0.259c2.362,0,4.278,1.909,4.278,4.268
		c0,2.354-1.916,4.265-4.278,4.265c-2.055,0-8.297,0-10.269,0c-2.363,0-4.278-1.909-4.278-4.265c0-2.354,1.916-4.268,4.278-4.268
		c0.161,0,0.323,0.009,0.482,0.027c0.497-1.807,2.155-3.135,4.127-3.135C14.989,15.413,16.706,16.855,17.119,18.779L17.119,18.779z"
		/>
	<polygon fill="#4897FF" points="9.803,22.942 11.537,24.397 11.93,22.168 16.937,23.051 16.543,25.281 18.671,24.506 
		20.409,29.283 18.282,30.058 20.017,31.513 16.749,35.407 15.014,33.951 14.621,36.182 9.615,35.299 10.008,33.068 7.88,33.843 
		6.142,29.066 8.27,28.292 6.535,26.836 	"/>
	<polygon fill="#FFFFFF" points="8.003,26.708 9.931,24.41 12.25,26.355 12.775,23.375 15.729,23.896 15.204,26.877 18.048,25.841 
		19.074,28.66 16.23,29.695 18.549,31.642 16.621,33.939 14.302,31.993 13.776,34.975 10.822,34.453 11.348,31.473 8.503,32.508 
		7.477,29.688 10.321,28.653 	"/>
</g>
</svg>
