<?xml version="1.0" encoding="utf-8"?>
<!-- Generator: Adobe Illustrator 16.0.4, SVG Export Plug-In . SVG Version: 6.00 Build 0)  -->
<!DOCTYPE svg PUBLIC "-//W3C//DTD SVG 1.1//EN" "http://www.w3.org/Graphics/SVG/1.1/DTD/svg11.dtd">
<svg version="1.1" id="Layer_1" xmlns="http://www.w3.org/2000/svg" xmlns:xlink="http://www.w3.org/1999/xlink" x="0px" y="0px"
	 width="50px" height="50px" viewBox="0 0 50 50" enable-background="new 0 0 50 50" xml:space="preserve">
<g>
	<path fill="#8F8F8F" d="M10.386,8.24c1.438-4.122,5.356-7.084,9.97-7.084c1.285,0,2.517,0.229,3.661,0.652
		C25.703,0.672,27.742,0,29.934,0c5.07,0,9.311,3.582,10.319,8.355c4.778,1.005,8.356,5.243,8.356,10.317
		c0,5.829-4.721,10.553-10.553,10.553H11.936C6.109,29.232,1.383,24.507,1.383,18.68C1.383,13.377,5.292,8.989,10.386,8.24
		L10.386,8.24z"/>
	<path fill="#CECECE" d="M13.101,11.517c0.103-3.916,3.311-7.053,7.254-7.053c1.541,0,2.969,0.478,4.137,1.294
		c1.33-1.506,3.273-2.458,5.445-2.458c4.008,0,7.258,3.251,7.258,7.256c0,0.315-0.021,0.625-0.059,0.934
		c0.309-0.039,0.612-0.058,0.934-0.058c4.005,0,7.259,3.248,7.259,7.255c0,4.008-3.252,7.262-7.259,7.262
		c-4.008,0-22.188,0-26.125,0c-4.005,0-7.258-3.251-7.258-7.262c0-4.007,3.251-7.255,7.258-7.255
		C12.333,11.423,12.721,11.456,13.101,11.517L13.101,11.517z"/>
	<path fill="#8F8F8F" d="M11.17,21.958c1.603-2.606,4.481-4.342,7.765-4.342c4.366,0,8.02,3.073,8.904,7.175l-4.356-2.403
		c0.981-0.364,2.037-0.552,3.128-0.552c5.019,0,9.104,4.057,9.104,9.082s-4.085,9.076-9.104,9.076H12.676
		c-5.016,0-9.102-4.051-9.102-9.076C3.575,26.402,6.868,22.673,11.17,21.958L11.17,21.958z"/>
	<path fill="#CECECE" d="M24.611,25.483c0.623-0.233,1.297-0.357,1.999-0.357c3.207,0,5.806,2.591,5.806,5.791
		c0,3.194-2.599,5.786-5.806,5.786c-2.789,0-11.256,0-13.934,0c-3.206,0-5.805-2.59-5.805-5.786c0-3.194,2.6-5.791,5.805-5.791
		c0.219,0,0.438,0.018,0.654,0.037c0.674-2.452,2.924-4.253,5.6-4.253C21.723,20.913,24.051,22.871,24.611,25.483L24.611,25.483z"/>
	<path fill="#4897FF" d="M23.716,40.958c0.437,0.828,0.684,1.771,0.684,2.77c0,3.285-2.655,5.936-5.935,5.936
		c-3.277,0-5.935-2.648-5.935-5.936c0-0.996,0.247-1.939,0.687-2.77l3.639-6.854c0,0,0.554-1.186,1.609-1.186
		c1.111,0,1.631,1.186,1.631,1.186L23.716,40.958L23.716,40.958z"/>
	<path fill="#4897FF" d="M44.846,39.371c0.393,0.744,0.616,1.594,0.616,2.498c0,2.943-2.392,5.336-5.341,5.336
		c-2.943,0-5.336-2.391-5.336-5.336c0-0.896,0.225-1.747,0.619-2.498l3.271-6.169c0,0,0.498-1.065,1.447-1.065
		c1.006,0,1.469,1.065,1.469,1.065L44.846,39.371L44.846,39.371z"/>
	<polygon fill="#4897FF" points="28.889,23.681 31.244,25.654 31.777,22.631 38.568,23.829 38.036,26.854 40.924,25.803 
		43.281,32.283 40.396,33.334 42.748,35.311 38.314,40.593 35.96,38.619 35.428,41.643 28.637,40.447 29.169,37.42 26.281,38.473 
		23.922,31.99 26.811,30.939 24.457,28.965 	"/>
	<polygon fill="#FFFFFF" points="26.447,28.791 29.062,25.672 32.211,28.312 32.924,24.267 36.932,24.974 36.219,29.02 
		40.08,27.615 41.471,31.439 37.611,32.844 40.758,35.482 38.141,38.604 34.994,35.962 34.281,40.007 30.271,39.3 30.986,35.255 
		27.127,36.66 25.734,32.834 29.594,31.43 	"/>
</g>
</svg>
