<?xml version="1.0" encoding="utf-8"?>
<!-- Generator: Adobe Illustrator 16.0.4, SVG Export Plug-In . SVG Version: 6.00 Build 0)  -->
<!DOCTYPE svg PUBLIC "-//W3C//DTD SVG 1.1//EN" "http://www.w3.org/Graphics/SVG/1.1/DTD/svg11.dtd">
<svg version="1.1" id="Layer_1" xmlns="http://www.w3.org/2000/svg" xmlns:xlink="http://www.w3.org/1999/xlink" x="0px" y="0px"
	 width="50.0px" height="50.0px" viewBox="0 0 34.811 35.949" enable-background="new 0 0 34.811 35.949" xml:space="preserve">
<g>
	<path fill="#8F8F8F" d="M6.635,6.072c1.06-3.038,3.948-5.217,7.348-5.217c0.947,0,1.855,0.17,2.698,0.481
		C17.924,0.494,19.426,0,21.041,0c3.738,0,6.862,2.64,7.607,6.158c3.521,0.745,6.159,3.868,6.159,7.609
		c0,4.295-3.48,7.777-7.778,7.777H7.778C3.483,21.544,0,18.062,0,13.767C0,9.859,2.881,6.625,6.635,6.072L6.635,6.072z"/>
	<path fill="#CECECE" d="M8.636,8.487c0.076-2.886,2.44-5.202,5.346-5.202c1.135,0,2.187,0.353,3.049,0.954
		c0.98-1.11,2.413-1.81,4.012-1.81c2.954,0,5.35,2.394,5.35,5.348c0,0.232-0.016,0.461-0.044,0.685
		c0.226-0.029,0.452-0.043,0.688-0.043c2.952,0,5.349,2.394,5.349,5.348c0,2.953-2.396,5.348-5.349,5.348c-2.954,0-16.35,0-19.255,0
		c-2.952,0-5.348-2.396-5.348-5.348c0-2.954,2.396-5.348,5.348-5.348C8.07,8.419,8.356,8.442,8.636,8.487L8.636,8.487z"/>
	<path fill="#8F8F8F" d="M7.213,16.182c1.181-1.92,3.303-3.199,5.723-3.199c3.218,0,5.91,2.261,6.562,5.287l-3.21-1.772
		c0.723-0.264,1.501-0.407,2.307-0.407c3.697,0,6.708,2.989,6.708,6.694s-3.011,6.693-6.708,6.693H8.323
		c-3.697,0-6.708-2.988-6.708-6.693C1.615,19.458,4.042,16.709,7.213,16.182L7.213,16.182z"/>
	<path fill="#CECECE" d="M17.119,18.779c0.459-0.168,0.956-0.26,1.473-0.26c2.363,0,4.278,1.91,4.278,4.266
		c0,2.354-1.915,4.264-4.278,4.264c-2.055,0-8.297,0-10.269,0c-2.363,0-4.278-1.908-4.278-4.264c0-2.354,1.916-4.266,4.278-4.266
		c0.162,0,0.324,0.01,0.483,0.025c0.497-1.807,2.155-3.135,4.127-3.135C14.99,15.412,16.706,16.855,17.119,18.779L17.119,18.779z"/>
	<polygon fill="#4897FF" points="20.771,17.676 22.614,18.347 22.273,16.415 26.983,15.584 27.324,17.517 28.827,16.255 
		31.902,19.919 30.399,21.182 32.242,21.852 30.606,26.348 28.764,25.675 29.104,27.607 24.394,28.438 24.053,26.505 22.55,27.768 
		19.476,24.104 20.978,22.841 19.135,22.171 	"/>
	<polygon fill="#FFFFFF" points="20.47,21.548 21.394,19.012 23.953,19.941 23.479,17.26 26.139,16.791 26.612,19.475 
		28.699,17.723 30.435,19.791 28.348,21.542 30.907,22.475 29.984,25.011 27.424,24.08 27.897,26.764 25.238,27.23 24.766,24.548 
		22.679,26.3 20.942,24.23 23.029,22.479 	"/>
	<polygon fill="#4897FF" points="9.533,22.708 11.267,24.166 11.66,21.936 16.667,22.816 16.273,25.048 18.401,24.273 20.14,29.05 
		18.012,29.824 19.746,31.281 16.479,35.173 14.744,33.718 14.351,35.949 9.345,35.064 9.738,32.835 7.61,33.609 5.872,28.833 
		8,28.059 6.265,26.604 	"/>
	<polygon fill="#FFFFFF" points="7.733,26.475 9.661,24.177 11.98,26.123 12.505,23.143 15.46,23.664 14.934,26.645 17.778,25.607 
		18.805,28.427 15.96,29.462 18.279,31.408 16.351,33.707 14.032,31.761 13.506,34.742 10.552,34.221 11.078,31.24 8.233,32.275 
		7.207,29.457 10.052,28.421 	"/>
</g>
</svg>
