<?xml version="1.0" encoding="utf-8"?>
<!-- Generator: Adobe Illustrator 16.0.4, SVG Export Plug-In . SVG Version: 6.00 Build 0)  -->
<!DOCTYPE svg PUBLIC "-//W3C//DTD SVG 1.1//EN" "http://www.w3.org/Graphics/SVG/1.1/DTD/svg11.dtd">
<svg version="1.1" id="Layer_1" xmlns="http://www.w3.org/2000/svg" xmlns:xlink="http://www.w3.org/1999/xlink" x="0px" y="0px"
	 width="50px" height="50px" viewBox="0 0 50 50" enable-background="new 0 0 50 50" xml:space="preserve">
<g>
	<path fill="#8F8F8F" d="M12.52,7.037c1.229-3.521,4.575-6.045,8.515-6.045c1.097,0,2.151,0.197,3.126,0.555
		C25.602,0.572,27.342,0,29.214,0c4.329,0,7.948,3.063,8.812,7.136c4.08,0.863,7.139,4.482,7.139,8.817
		c0,4.977-4.031,9.007-9.014,9.007H13.844c-4.977,0.004-9.013-4.03-9.013-9.007C4.832,11.424,8.171,7.677,12.52,7.037L12.52,7.037z"
		/>
	<path fill="#CECECE" d="M14.838,9.834c0.088-3.344,2.827-6.028,6.195-6.028c1.316,0,2.535,0.41,3.533,1.105
		c1.135-1.286,2.795-2.096,4.651-2.096c3.422,0,6.199,2.774,6.199,6.196c0,0.265-0.02,0.534-0.053,0.793
		c0.264-0.028,0.525-0.05,0.799-0.05c3.419,0,6.197,2.776,6.197,6.202c0,3.417-2.775,6.196-6.197,6.196s-18.947,0-22.312,0
		c-3.421,0-6.198-2.776-6.198-6.196c0-3.423,2.776-6.202,6.198-6.202C14.183,9.755,14.514,9.782,14.838,9.834L14.838,9.834z"/>
	<path fill="#8F8F8F" d="M13.189,18.751c1.369-2.23,3.827-3.707,6.631-3.707c3.729,0,6.848,2.619,7.604,6.126l-3.72-2.053
		c0.838-0.306,1.739-0.472,2.674-0.472c4.283,0,7.772,3.463,7.772,7.757c0,4.293-3.489,7.756-7.772,7.756H14.477
		c-4.284,0-7.773-3.463-7.773-7.756C6.703,22.547,9.515,19.363,13.189,18.751L13.189,18.751z"/>
	<path fill="#CECECE" d="M24.668,21.761c0.532-0.193,1.105-0.3,1.707-0.3c2.738,0,4.957,2.212,4.957,4.941
		c0,2.729-2.219,4.939-4.957,4.939c-2.381,0-9.614,0-11.898,0c-2.738,0-4.958-2.208-4.958-4.939c0-2.729,2.22-4.941,4.958-4.941
		c0.187,0,0.373,0.011,0.557,0.027c0.576-2.094,2.497-3.633,4.782-3.633C22.201,17.86,24.189,19.531,24.668,21.761L24.668,21.761z"
		/>
	<path fill="#4897FF" d="M28.199,42.342c0.373,0.701,0.586,1.513,0.586,2.365c0,2.799-2.27,5.067-5.068,5.067
		c-2.798,0-5.068-2.271-5.068-5.067c0-0.854,0.211-1.662,0.586-2.365l3.107-5.854c0,0,0.473-1.01,1.375-1.01
		c0.949,0,1.393,1.01,1.393,1.01L28.199,42.342L28.199,42.342z"/>
	<path fill="#4897FF" d="M40.281,36.943c0.334,0.634,0.523,1.355,0.523,2.127c0,2.521-2.039,4.561-4.561,4.561
		c-2.516,0-4.559-2.039-4.559-4.561c0-0.76,0.19-1.493,0.525-2.127l2.797-5.27c0,0,0.426-0.91,1.235-0.91
		c0.858,0,1.254,0.91,1.254,0.91L40.281,36.943L40.281,36.943z"/>
	<polygon fill="#4897FF" points="15.391,26.893 17.401,28.578 17.857,25.995 23.658,27.019 23.202,29.602 25.667,28.705 
		27.682,34.238 25.216,35.137 27.227,36.822 23.44,41.336 21.431,39.65 20.975,42.231 15.173,41.209 15.628,38.627 13.164,39.523 
		11.149,33.987 13.615,33.092 11.605,31.405 	"/>
	<polygon fill="#FFFFFF" points="13.305,31.256 15.54,28.592 18.227,30.848 18.835,27.393 22.259,27.996 21.649,31.451 
		24.946,30.252 26.135,33.52 22.839,34.719 25.525,36.973 23.292,39.633 20.604,37.381 19.995,40.834 16.572,40.231 17.181,36.775 
		13.885,37.979 12.696,34.709 15.993,33.51 	"/>
	<polygon fill="#4897FF" points="29.977,20.972 32.111,21.75 31.717,19.511 37.176,18.548 37.57,20.787 39.312,19.324 
		42.875,23.572 41.133,25.034 43.27,25.811 41.373,31.02 39.236,30.241 39.633,32.479 34.174,33.441 33.777,31.205 32.037,32.664 
		28.475,28.418 30.217,26.957 28.08,26.182 	"/>
	<polygon fill="#FFFFFF" points="29.627,25.459 30.697,22.519 33.664,23.599 33.115,20.49 36.195,19.947 36.744,23.056 
		39.162,21.027 41.174,23.423 38.755,25.452 41.723,26.531 40.652,29.473 37.688,28.393 38.232,31.502 35.152,32.044 34.604,28.936 
		32.186,30.965 30.176,28.568 32.594,26.537 	"/>
</g>
</svg>
