<?xml version="1.0" encoding="utf-8"?>
<!-- Generator: Adobe Illustrator 16.0.4, SVG Export Plug-In . SVG Version: 6.00 Build 0)  -->
<!DOCTYPE svg PUBLIC "-//W3C//DTD SVG 1.1//EN" "http://www.w3.org/Graphics/SVG/1.1/DTD/svg11.dtd">
<svg version="1.1" id="Layer_1" xmlns="http://www.w3.org/2000/svg" xmlns:xlink="http://www.w3.org/1999/xlink" x="0px" y="0px"
	 width="50px" height="50px" viewBox="0 0 50 50" enable-background="new 0 0 50 50" xml:space="preserve">
<g>
	<g id="SUN">
		<g>
			<circle fill="#E8B720" cx="25.479" cy="24.301" r="13.264"/>
			<path fill="#E8B720" d="M30.904,8.962h0.218l-5.645-8.496l-5.643,8.496h0.208c1.7-0.606,3.527-0.946,5.436-0.946
				C27.383,8.017,29.206,8.355,30.904,8.962z"/>
			<path fill="#E8B720" d="M18.495,9.603l0.145-0.144L8.642,7.441l2.017,9.999l0.153-0.153C12.42,13.925,15.137,11.206,18.495,9.603
				z"/>
			<path fill="#E8B720" d="M10.165,18.811v-0.177l-8.497,5.643l8.497,5.645V29.78c-0.619-1.714-0.969-3.554-0.969-5.479
				C9.195,22.371,9.548,20.528,10.165,18.811z"/>
			<path fill="#E8B720" d="M10.742,31.198l-0.083-0.082l-2.016,9.998l9.997-2.02l-0.083-0.081
				C15.126,37.396,12.354,34.628,10.742,31.198z"/>
			<path fill="#E8B720" d="M19.927,39.593h-0.092l5.644,8.496l5.643-8.496h-0.106c-1.729,0.632-3.588,0.992-5.536,0.992
				C23.526,40.585,21.662,40.223,19.927,39.593z"/>
			<path fill="#E8B720" d="M40.191,31.227c-1.617,3.431-4.387,6.198-7.812,7.812L32.32,39.1l9.996,2.019l-2.018-10L40.191,31.227z"
				/>
			<path fill="#E8B720" d="M40.794,29.79v0.131l8.496-5.643l-8.496-5.645v0.188c0.618,1.712,0.968,3.552,0.968,5.479
				C41.762,26.229,41.41,28.07,40.794,29.79z"/>
			<path fill="#E8B720" d="M40.169,17.308l0.13,0.132l2.018-9.999L32.318,9.46l0.152,0.152
				C35.839,11.217,38.562,13.939,40.169,17.308z"/>
		</g>
	</g>
	<g id="ohut_yläpilvi">
		<g>
			<path fill="#A3A3A3" d="M44.586,5.034c0,0.855-0.674,1.553-1.52,1.595C43.041,6.63,22.365,6.631,22.338,6.631
				c-0.882,0-1.597-0.715-1.597-1.597c0-0.882,0.715-1.597,1.597-1.597c0.027,0,20.705,0.001,20.73,0.002
				C43.914,3.481,44.586,4.179,44.586,5.034z"/>
			<path fill="#A3A3A3" d="M28.001,21.167c0,0.855-0.674,1.553-1.519,1.595c-0.026,0.001-20.705,0.002-20.729,0.002
				c-0.882,0-1.597-0.715-1.597-1.597s0.715-1.598,1.597-1.598c0.027,0,20.705,0.001,20.731,0.002
				C27.33,19.614,28.001,20.312,28.001,21.167z"/>
			<path fill="#A3A3A3" d="M34.262,10.412c0,0.855-0.675,1.553-1.52,1.595c-0.026,0.001-31.028,0.002-31.054,0.002
				c-0.882,0-1.597-0.715-1.597-1.597s0.715-1.597,1.597-1.597c0.027,0,31.03,0.001,31.056,0.002
				C33.589,8.859,34.262,9.557,34.262,10.412z"/>
			<path fill="#A3A3A3" d="M49.749,15.79c0,0.855-0.674,1.553-1.519,1.595c-0.026,0.001-31.028,0.002-31.057,0.002
				c-0.882,0-1.597-0.715-1.597-1.597s0.715-1.597,1.597-1.597c0.027,0,31.03,0.001,31.059,0.002
				C49.077,14.237,49.749,14.934,49.749,15.79z"/>
		</g>
	</g>
</g>
</svg>
