<?xml version="1.0" encoding="utf-8"?>
<!-- Generator: Adobe Illustrator 16.0.4, SVG Export Plug-In . SVG Version: 6.00 Build 0)  -->
<!DOCTYPE svg PUBLIC "-//W3C//DTD SVG 1.1//EN" "http://www.w3.org/Graphics/SVG/1.1/DTD/svg11.dtd">
<svg version="1.1" id="Layer_1" xmlns="http://www.w3.org/2000/svg" xmlns:xlink="http://www.w3.org/1999/xlink" x="0px" y="0px"
	 width="50px" height="50px" viewBox="0 0 50 50" enable-background="new 0 0 50 50" xml:space="preserve">
<g>
	<g>
		<path fill="#A3A3A3" d="M13.845,9c0,0.855-0.674,1.553-1.519,1.595c-0.026,0.001-9.703,0.002-9.729,0.002
			C1.715,10.598,1,9.882,1,9s0.715-1.598,1.597-1.598c0.027,0,9.705,0.001,9.731,0.002C13.174,7.447,13.845,8.145,13.845,9z"/>
		<path fill="#A3A3A3" d="M28.846,9c0,0.855-0.675,1.553-1.52,1.595c-0.026,0.001-9.703,0.002-9.729,0.002
			C16.715,10.598,16,9.882,16,9s0.715-1.598,1.597-1.598c0.027,0,9.705,0.001,9.731,0.002C28.174,7.447,28.846,8.145,28.846,9z"/>
		<path fill="#A3A3A3" d="M43.846,9c0,0.855-0.675,1.553-1.52,1.595c-0.026,0.001-9.703,0.002-9.729,0.002
			C31.715,10.598,31,9.882,31,9s0.715-1.598,1.598-1.598c0.026,0,9.705,0.001,9.73,0.002C43.174,7.447,43.846,8.145,43.846,9z"/>
	</g>
	<g>
		<path fill="#A3A3A3" d="M13.845,25c0,0.855-0.674,1.552-1.519,1.595c-0.026,0-9.703,0.003-9.729,0.003C1.715,26.598,1,25.883,1,25
			s0.715-1.598,1.597-1.598c0.027,0,9.705,0.001,9.731,0.002C13.174,23.447,13.845,24.145,13.845,25z"/>
		<path fill="#A3A3A3" d="M28.846,25c0,0.855-0.675,1.552-1.52,1.595c-0.026,0-9.703,0.003-9.729,0.003
			C16.715,26.598,16,25.883,16,25s0.715-1.598,1.597-1.598c0.027,0,9.705,0.001,9.731,0.002C28.174,23.447,28.846,24.145,28.846,25z
			"/>
		<path fill="#A3A3A3" d="M43.846,25c0,0.855-0.675,1.552-1.52,1.595c-0.026,0-9.703,0.003-9.729,0.003
			C31.715,26.598,31,25.883,31,25s0.715-1.598,1.598-1.598c0.026,0,9.705,0.001,9.73,0.002C43.174,23.447,43.846,24.145,43.846,25z"
			/>
	</g>
	<g>
		<path fill="#A3A3A3" d="M13.845,41c0,0.855-0.674,1.553-1.519,1.596c-0.026,0-9.703,0.002-9.729,0.002C1.715,42.598,1,41.883,1,41
			c0-0.882,0.715-1.598,1.597-1.598c0.027,0,9.705,0.002,9.731,0.003C13.174,39.447,13.845,40.145,13.845,41z"/>
		<path fill="#A3A3A3" d="M28.846,41c0,0.855-0.675,1.553-1.52,1.596c-0.026,0-9.703,0.002-9.729,0.002
			C16.715,42.598,16,41.883,16,41c0-0.882,0.715-1.598,1.597-1.598c0.027,0,9.705,0.002,9.731,0.003
			C28.174,39.447,28.846,40.145,28.846,41z"/>
		<path fill="#A3A3A3" d="M43.846,41c0,0.855-0.675,1.553-1.52,1.596c-0.026,0-9.703,0.002-9.729,0.002
			C31.715,42.598,31,41.883,31,41c0-0.882,0.715-1.598,1.598-1.598c0.026,0,9.705,0.002,9.73,0.003
			C43.174,39.447,43.846,40.145,43.846,41z"/>
	</g>
	<g>
		<path fill="#A3A3A3" d="M19,17c0,0.855-0.674,1.553-1.519,1.595c-0.026,0.001-9.703,0.002-9.729,0.002
			c-0.882,0-1.597-0.715-1.597-1.597s0.715-1.598,1.597-1.598c0.027,0,9.705,0.001,9.731,0.002C18.329,15.447,19,16.145,19,17z"/>
		<path fill="#A3A3A3" d="M34,17c0,0.855-0.674,1.553-1.52,1.595c-0.025,0.001-9.703,0.002-9.729,0.002
			c-0.882,0-1.597-0.715-1.597-1.597s0.715-1.598,1.597-1.598c0.027,0,9.705,0.001,9.73,0.002C33.329,15.447,34,16.145,34,17z"/>
		<path fill="#A3A3A3" d="M49,17c0,0.855-0.674,1.553-1.52,1.595c-0.025,0.001-9.703,0.002-9.729,0.002
			c-0.883,0-1.598-0.715-1.598-1.597s0.715-1.598,1.598-1.598c0.025,0,9.704,0.001,9.73,0.002C48.329,15.447,49,16.145,49,17z"/>
	</g>
	<g>
		<path fill="#A3A3A3" d="M19,33c0,0.855-0.674,1.553-1.519,1.596c-0.026,0-9.703,0.002-9.729,0.002
			c-0.882,0-1.597-0.715-1.597-1.598c0-0.882,0.715-1.598,1.597-1.598c0.027,0,9.705,0.002,9.731,0.003
			C18.329,31.447,19,32.145,19,33z"/>
		<path fill="#A3A3A3" d="M34,33c0,0.855-0.674,1.553-1.52,1.596c-0.025,0-9.703,0.002-9.729,0.002
			c-0.882,0-1.597-0.715-1.597-1.598c0-0.882,0.715-1.598,1.597-1.598c0.027,0,9.705,0.002,9.73,0.003
			C33.329,31.447,34,32.145,34,33z"/>
		<path fill="#A3A3A3" d="M49,33c0,0.855-0.674,1.553-1.52,1.596c-0.025,0-9.703,0.002-9.729,0.002
			c-0.883,0-1.598-0.715-1.598-1.598c0-0.882,0.715-1.598,1.598-1.598c0.025,0,9.704,0.002,9.73,0.003
			C48.329,31.447,49,32.145,49,33z"/>
	</g>
</g>
</svg>
