<?xml version="1.0" encoding="utf-8"?>
<!-- Generator: Adobe Illustrator 16.0.4, SVG Export Plug-In . SVG Version: 6.00 Build 0)  -->
<!DOCTYPE svg PUBLIC "-//W3C//DTD SVG 1.1//EN" "http://www.w3.org/Graphics/SVG/1.1/DTD/svg11.dtd">
<svg version="1.1" id="Layer_1" xmlns="http://www.w3.org/2000/svg" xmlns:xlink="http://www.w3.org/1999/xlink" x="0px" y="0px"
	 width="50px" height="50px" viewBox="0 0 50 50" enable-background="new 0 0 50 50" xml:space="preserve">
<g>
	<path fill="#FCF06B" d="M22.382,1.504L25.683,0c-0.601,2.284-1.367,4.548-1.367,6.936c0,7.397,5.997,13.4,13.4,13.4
		c2.388,0,4.653-0.765,6.937-1.368c-3.158,6.931-7.125,12.48-15.773,12.48c-8.66,0-15.673-7.011-15.673-15.671
		C13.201,9.429,16.969,3.971,22.382,1.504L22.382,1.504z"/>
	<path fill="#A3A3A3" d="M12.651,24.355c1.215-3.483,4.527-5.981,8.425-5.981c1.086,0,2.127,0.195,3.094,0.549
		c1.424-0.967,3.147-1.533,4.999-1.533c4.285,0,7.867,3.032,8.721,7.061c4.037,0.854,7.062,4.435,7.062,8.724
		c0,4.925-3.989,8.912-8.918,8.912H13.961c-4.924,0.009-8.918-3.984-8.918-8.908C5.043,28.695,8.348,24.989,12.651,24.355
		L12.651,24.355z"/>
	<path fill="#FFFFFF" d="M14.945,27.124c0.087-3.309,2.797-5.964,6.129-5.964c1.303,0,2.509,0.406,3.496,1.094
		c1.124-1.271,2.767-2.075,4.601-2.075c3.387,0,6.134,2.746,6.134,6.132c0,0.266-0.019,0.527-0.05,0.786
		c0.26-0.028,0.518-0.051,0.788-0.051c3.384,0,6.134,2.747,6.134,6.137c0,3.386-2.748,6.13-6.134,6.13c-3.387,0-18.747,0-22.077,0
		c-3.385,0-6.134-2.744-6.134-6.13c0-3.388,2.748-6.137,6.134-6.137C14.296,27.046,14.625,27.072,14.945,27.124L14.945,27.124z"/>
	<path fill="#4897FF" d="M28.335,42.149c0.369,0.694,0.575,1.497,0.575,2.341c0,2.769-2.241,5.014-5.015,5.014
		c-2.771,0-5.015-2.245-5.015-5.014c0-0.844,0.211-1.644,0.58-2.341l3.076-5.791c0,0,0.464-1,1.359-1c0.939,0,1.377,1,1.377,1
		L28.335,42.149L28.335,42.149z"/>
</g>
</svg>
