<?xml version="1.0" encoding="utf-8"?>
<!-- Generator: Adobe Illustrator 16.0.4, SVG Export Plug-In . SVG Version: 6.00 Build 0)  -->
<!DOCTYPE svg PUBLIC "-//W3C//DTD SVG 1.1//EN" "http://www.w3.org/Graphics/SVG/1.1/DTD/svg11.dtd">
<svg version="1.1" id="Layer_1" xmlns="http://www.w3.org/2000/svg" xmlns:xlink="http://www.w3.org/1999/xlink" x="0px" y="0px"
	 width="50.0px" height="50.0px" viewBox="0 0 34.811 46.463" enable-background="new 0 0 34.811 46.463" xml:space="preserve">
<g>
	<path fill="#FCF06B" d="M15.122,1.312L18.001,0c-0.524,1.991-1.192,3.967-1.192,6.049c0,6.452,5.23,11.682,11.687,11.682
		c2.083,0,4.058-0.667,6.05-1.193c-2.755,6.046-6.215,10.885-13.758,10.885c-7.552,0-13.669-6.119-13.669-13.668
		C7.115,8.224,10.401,3.463,15.122,1.312L15.122,1.312z"/>
	<path fill="#A3A3A3" d="M6.635,21.242c1.06-3.038,3.948-5.217,7.348-5.217c0.947,0,1.855,0.17,2.698,0.481
		c1.242-0.843,2.745-1.337,4.36-1.337c3.737,0,6.861,2.64,7.606,6.158c3.521,0.745,6.159,3.869,6.159,7.609
		c0,4.295-3.479,7.773-7.778,7.773H7.778C3.482,36.714,0,33.231,0,28.937C0,25.028,2.882,21.795,6.635,21.242L6.635,21.242z"/>
	<path fill="#FFFFFF" d="M8.636,23.657c0.076-2.886,2.44-5.202,5.346-5.202c1.136,0,2.187,0.353,3.049,0.954
		c0.98-1.11,2.413-1.81,4.013-1.81c2.954,0,5.35,2.394,5.35,5.348c0,0.232-0.016,0.461-0.044,0.686
		c0.227-0.029,0.452-0.044,0.688-0.044c2.951,0,5.348,2.395,5.348,5.348s-2.396,5.351-5.348,5.351c-2.954,0-16.351,0-19.255,0
		c-2.952,0-5.349-2.396-5.349-5.351c0-2.953,2.396-5.348,5.349-5.348C8.07,23.589,8.356,23.612,8.636,23.657L8.636,23.657z"/>
	<path fill="#4897FF" d="M18.633,39.792c0.287,0.549,0.451,1.176,0.451,1.837c0,2.176-1.76,3.936-3.932,3.936
		c-2.172,0-3.936-1.76-3.936-3.936c0-0.658,0.167-1.284,0.454-1.838l2.413-4.546c0,0,0.368-0.785,1.068-0.785
		c0.738,0,1.082,0.785,1.082,0.785L18.633,39.792L18.633,39.792z"/>
	<polygon fill="#4897FF" points="15.879,30.458 17.724,31.129 17.382,29.197 22.093,28.366 22.434,30.299 23.937,29.038 
		27.011,32.702 25.508,33.963 27.352,34.634 25.715,39.128 23.872,38.457 24.212,40.39 19.502,41.22 19.161,39.288 17.659,40.549 
		14.584,36.885 16.087,35.624 14.244,34.953 	"/>
	<polygon fill="#FFFFFF" points="15.579,34.33 16.502,31.793 19.063,32.726 18.589,30.042 21.248,29.573 21.722,32.256 
		23.808,30.505 25.543,32.573 23.456,34.324 26.017,35.256 25.093,37.793 22.533,36.86 23.005,39.544 20.348,40.013 19.874,37.33 
		17.787,39.081 16.053,37.013 18.139,35.263 	"/>
</g>
</svg>
