<?xml version="1.0" encoding="utf-8"?>
<!-- Generator: Adobe Illustrator 16.0.4, SVG Export Plug-In . SVG Version: 6.00 Build 0)  -->
<!DOCTYPE svg PUBLIC "-//W3C//DTD SVG 1.1//EN" "http://www.w3.org/Graphics/SVG/1.1/DTD/svg11.dtd">
<svg version="1.1" id="Layer_1" xmlns="http://www.w3.org/2000/svg" xmlns:xlink="http://www.w3.org/1999/xlink" x="0px" y="0px"
	 width="50.0px" height="50.0px" viewBox="0 0 34.811 42.152" enable-background="new 0 0 34.811 42.152" xml:space="preserve">
<g>
	<path fill="#FCF06B" d="M15.122,1.312L18.001,0c-0.524,1.991-1.192,3.967-1.192,6.049c0,6.452,5.23,11.684,11.686,11.684
		c2.082,0,4.059-0.667,6.05-1.192c-2.755,6.046-6.215,10.886-13.757,10.886c-7.552,0-13.67-6.118-13.67-13.668
		C7.115,8.224,10.401,3.462,15.122,1.312L15.122,1.312z"/>
	<path fill="#A3A3A3" d="M6.635,21.242c1.06-3.038,3.948-5.218,7.348-5.218c0.947,0,1.856,0.17,2.698,0.479
		c1.242-0.843,2.745-1.337,4.36-1.337c3.738,0,6.862,2.642,7.607,6.158c3.521,0.745,6.159,3.867,6.159,7.607
		c0,4.296-3.48,7.775-7.778,7.775H7.778C3.483,36.713,0,33.231,0,28.936C0,25.028,2.882,21.795,6.635,21.242L6.635,21.242z"/>
	<path fill="#FFFFFF" d="M8.636,23.656c0.076-2.886,2.44-5.201,5.346-5.201c1.135,0,2.186,0.354,3.049,0.954
		c0.98-1.109,2.413-1.81,4.012-1.81c2.954,0,5.35,2.395,5.35,5.348c0,0.229-0.016,0.461-0.044,0.686
		c0.226-0.026,0.452-0.043,0.688-0.043c2.952,0,5.348,2.396,5.348,5.349s-2.396,5.349-5.348,5.349c-2.954,0-16.35,0-19.255,0
		c-2.952,0-5.348-2.396-5.348-5.349S4.826,23.59,7.78,23.59C8.07,23.589,8.356,23.611,8.636,23.656L8.636,23.656z"/>
	<polygon fill="#4897FF" points="13.985,28.914 15.719,30.37 16.112,28.14 21.119,29.022 20.726,31.253 22.854,30.479 
		24.592,35.255 22.464,36.029 24.199,37.484 20.932,41.379 19.196,39.924 18.803,42.153 13.797,41.271 14.19,39.041 12.063,39.815 
		10.324,35.038 12.452,34.264 10.717,32.809 	"/>
	<polygon fill="#FFFFFF" points="12.185,32.68 14.113,30.382 16.432,32.327 16.958,29.347 19.912,29.867 19.387,32.849 
		22.23,31.813 23.257,34.633 20.412,35.668 22.731,37.613 20.803,39.911 18.484,37.966 17.958,40.946 15.004,40.426 15.53,37.445 
		12.686,38.48 11.659,35.661 14.504,34.626 	"/>
</g>
</svg>
