<?xml version="1.0" encoding="utf-8"?>
<!-- Generator: Adobe Illustrator 16.0.4, SVG Export Plug-In . SVG Version: 6.00 Build 0)  -->
<!DOCTYPE svg PUBLIC "-//W3C//DTD SVG 1.1//EN" "http://www.w3.org/Graphics/SVG/1.1/DTD/svg11.dtd">
<svg version="1.1" id="Layer_1" xmlns="http://www.w3.org/2000/svg" xmlns:xlink="http://www.w3.org/1999/xlink" x="0px" y="0px"
	 width="50.0px" height="50.0px" viewBox="0 0 34.811 46.514" enable-background="new 0 0 34.811 46.514" xml:space="preserve">
<g>
	<path fill="#FCF06B" d="M15.122,1.312L18.001,0c-0.524,1.991-1.192,3.967-1.192,6.049c0,6.452,5.23,11.682,11.686,11.682
		c2.083,0,4.058-0.667,6.05-1.189c-2.755,6.045-6.215,10.885-13.757,10.885c-7.552,0-13.67-6.119-13.67-13.668
		C7.115,8.224,10.401,3.463,15.122,1.312L15.122,1.312z"/>
	<path fill="#A3A3A3" d="M6.635,21.242c1.06-3.038,3.948-5.22,7.348-5.22c0.947,0,1.855,0.17,2.698,0.481
		c1.243-0.843,2.745-1.337,4.36-1.337c3.738,0,6.862,2.64,7.607,6.158c3.521,0.743,6.159,3.865,6.159,7.605
		c0,4.297-3.48,7.777-7.778,7.777H7.778C3.483,36.713,0,33.232,0,28.936C0,25.029,2.881,21.794,6.635,21.242L6.635,21.242z"/>
	<path fill="#FFFFFF" d="M8.636,23.656c0.076-2.888,2.44-5.201,5.346-5.201c1.135,0,2.187,0.352,3.049,0.954
		c0.98-1.109,2.413-1.812,4.012-1.812c2.954,0,5.35,2.396,5.35,5.351c0,0.229-0.016,0.461-0.044,0.685
		c0.226-0.028,0.452-0.044,0.688-0.044c2.952,0,5.349,2.395,5.349,5.348s-2.396,5.351-5.349,5.351c-2.954,0-16.35,0-19.255,0
		c-2.952,0-5.348-2.396-5.348-5.351s2.396-5.348,5.348-5.348C8.07,23.588,8.356,23.611,8.636,23.656L8.636,23.656z"/>
	<path fill="#4897FF" d="M15.523,37.499c0.322,0.611,0.503,1.307,0.503,2.044c0,2.418-1.956,4.372-4.374,4.372
		c-2.415,0-4.374-1.954-4.374-4.372c0-0.737,0.184-1.432,0.506-2.044l2.683-5.049c0,0,0.407-0.873,1.185-0.873
		c0.819,0,1.202,0.873,1.202,0.873L15.523,37.499L15.523,37.499z"/>
	<path fill="#4897FF" d="M27.009,40.185c0.288,0.549,0.453,1.174,0.453,1.842c0,2.169-1.762,3.932-3.935,3.932
		c-2.172,0-3.935-1.763-3.935-3.932c0-0.664,0.166-1.289,0.455-1.842l2.414-4.546c0,0,0.367-0.786,1.066-0.786
		c0.738,0,1.082,0.786,1.082,0.786L27.009,40.185L27.009,40.185z"/>
</g>
</svg>
