<?xml version="1.0" encoding="utf-8"?>
<!-- Generator: Adobe Illustrator 16.0.4, SVG Export Plug-In . SVG Version: 6.00 Build 0)  -->
<!DOCTYPE svg PUBLIC "-//W3C//DTD SVG 1.1//EN" "http://www.w3.org/Graphics/SVG/1.1/DTD/svg11.dtd">
<svg version="1.1" id="Layer_1" xmlns="http://www.w3.org/2000/svg" xmlns:xlink="http://www.w3.org/1999/xlink" x="0px" y="0px"
	 width="50.0px" height="50.0px" viewBox="0 0 34.811 47.482" enable-background="new 0 0 34.811 47.482" xml:space="preserve">
<g>
	<path fill="#FCF06B" d="M15.122,1.312L18.001,0c-0.524,1.991-1.192,3.967-1.192,6.049c0,6.452,5.23,11.685,11.686,11.685
		c2.083,0,4.059-0.667,6.05-1.192c-2.755,6.045-6.215,10.885-13.757,10.885c-7.552,0-13.67-6.117-13.67-13.668
		C7.115,8.224,10.401,3.463,15.122,1.312L15.122,1.312z"/>
	<path fill="#A3A3A3" d="M6.635,21.242c1.06-3.038,3.948-5.218,7.348-5.218c0.947,0,1.856,0.17,2.698,0.479
		c1.243-0.843,2.745-1.337,4.361-1.337c3.737,0,6.861,2.642,7.606,6.158c3.521,0.745,6.159,3.868,6.159,7.608
		c0,4.295-3.48,7.775-7.778,7.775H7.778C3.483,36.714,0,33.231,0,28.937C0,25.028,2.882,21.795,6.635,21.242L6.635,21.242z"/>
	<path fill="#FFFFFF" d="M8.636,23.657c0.076-2.887,2.44-5.202,5.346-5.202c1.135,0,2.187,0.354,3.049,0.954
		c0.98-1.11,2.413-1.811,4.013-1.811c2.953,0,5.349,2.395,5.349,5.349c0,0.229-0.016,0.46-0.044,0.685
		c0.226-0.027,0.452-0.043,0.688-0.043c2.952,0,5.349,2.396,5.349,5.35s-2.396,5.349-5.349,5.349c-2.954,0-16.35,0-19.255,0
		c-2.952,0-5.348-2.396-5.348-5.349s2.396-5.35,5.348-5.35C8.07,23.589,8.356,23.612,8.636,23.657L8.636,23.657z"/>
	<polygon fill="#4897FF" points="8.985,29.141 10.719,30.597 11.113,28.366 16.119,29.249 15.726,31.479 17.854,30.704 
		19.592,35.481 17.464,36.256 19.199,37.711 15.932,41.605 14.197,40.149 13.803,42.38 8.797,41.497 9.19,39.267 7.063,40.041 
		5.324,35.265 7.452,34.49 5.717,33.035 	"/>
	<polygon fill="#FFFFFF" points="7.185,32.906 9.113,30.608 11.432,32.554 11.958,29.573 14.912,30.094 14.386,33.075 17.231,32.04 
		18.257,34.858 15.413,35.894 17.731,37.84 15.803,40.138 13.484,38.192 12.958,41.173 10.004,40.652 10.53,37.671 7.686,38.706 
		6.659,35.888 9.504,34.853 	"/>
	<polygon fill="#4897FF" points="20.458,36.722 22.302,37.393 21.961,35.46 26.672,34.63 27.012,36.562 28.515,35.301 31.59,38.965 
		30.087,40.226 31.93,40.896 30.294,45.392 28.451,44.721 28.791,46.652 24.081,47.483 23.74,45.551 22.237,46.812 19.163,43.147 
		20.666,41.887 18.822,41.216 	"/>
	<polygon fill="#FFFFFF" points="20.157,40.594 21.081,38.057 23.641,38.988 23.168,36.306 25.826,35.837 26.3,38.52 28.387,36.769 
		30.122,38.837 28.035,40.588 30.595,41.52 29.672,44.057 27.111,43.125 27.585,45.808 24.926,46.276 24.453,43.594 22.366,45.344 
		20.631,43.276 22.717,41.525 	"/>
</g>
</svg>
