<?xml version="1.0" encoding="utf-8"?>
<!-- Generator: Adobe Illustrator 16.0.4, SVG Export Plug-In . SVG Version: 6.00 Build 0)  -->
<!DOCTYPE svg PUBLIC "-//W3C//DTD SVG 1.1//EN" "http://www.w3.org/Graphics/SVG/1.1/DTD/svg11.dtd">
<svg version="1.1" id="Layer_1" xmlns="http://www.w3.org/2000/svg" xmlns:xlink="http://www.w3.org/1999/xlink" x="0px" y="0px"
	 width="50.0px" height="50.0px" viewBox="0 0 34.811 49.383" enable-background="new 0 0 34.811 49.383" xml:space="preserve">
<g>
	<path fill="#FCF06B" d="M15.122,1.312L18.001,0c-0.524,1.991-1.192,3.967-1.192,6.049c0,6.452,5.23,11.682,11.688,11.682
		c2.082,0,4.058-0.667,6.05-1.193c-2.755,6.046-6.215,10.885-13.758,10.885c-7.554,0-13.669-6.119-13.669-13.668
		C7.115,8.224,10.401,3.463,15.122,1.312L15.122,1.312z"/>
	<path fill="#A3A3A3" d="M6.635,21.242c1.06-3.038,3.948-5.217,7.347-5.217c0.947,0,1.856,0.17,2.699,0.481
		c1.242-0.843,2.744-1.337,4.36-1.337c3.735,0,6.859,2.639,7.604,6.158c3.521,0.745,6.159,3.868,6.159,7.608
		c0,4.297-3.479,7.771-7.778,7.771H7.778C3.482,36.713,0,33.232,0,28.936C0,25.029,2.882,21.795,6.635,21.242L6.635,21.242z"/>
	<path fill="#FFFFFF" d="M8.636,23.657c0.076-2.886,2.44-5.202,5.346-5.202c1.139,0,2.188,0.353,3.055,0.954
		c0.979-1.109,2.408-1.809,4.01-1.809c2.954,0,5.35,2.394,5.35,5.348c0,0.232-0.016,0.461-0.044,0.685
		c0.229-0.028,0.452-0.043,0.688-0.043c2.952,0,5.348,2.395,5.348,5.348c0,2.955-2.396,5.353-5.348,5.353
		c-2.954,0-16.353,0-19.254,0c-2.953,0-5.352-2.396-5.352-5.353c0-2.953,2.396-5.348,5.352-5.348
		C8.07,23.589,8.356,23.612,8.636,23.657L8.636,23.657z"/>
	<path fill="#4897FF" d="M28.857,37.686c0.322,0.609,0.498,1.306,0.498,2.043c0,2.414-1.952,4.373-4.373,4.373
		c-2.414,0-4.374-1.959-4.374-4.373c0-0.737,0.184-1.434,0.506-2.043l2.683-5.049c0,0,0.402-0.875,1.181-0.875
		c0.819,0,1.202,0.875,1.202,0.875L28.857,37.686L28.857,37.686z"/>
	<polygon fill="#FCF06B" points="4,38.406 7.891,25.117 16.114,25.117 14.649,30.484 20.445,30.484 11.586,49.383 9.739,38.301 	"/>
	<polygon fill="#E3303D" points="9.197,26.914 6.27,36.914 11.201,36.822 12.419,44.145 17.979,32.279 12.614,32.279 14.075,26.914 
			"/>
</g>
</svg>
