<?xml version="1.0" encoding="utf-8"?>
<!-- Generator: Adobe Illustrator 16.0.4, SVG Export Plug-In . SVG Version: 6.00 Build 0)  -->
<!DOCTYPE svg PUBLIC "-//W3C//DTD SVG 1.1//EN" "http://www.w3.org/Graphics/SVG/1.1/DTD/svg11.dtd">
<svg version="1.1" id="Layer_1" xmlns="http://www.w3.org/2000/svg" xmlns:xlink="http://www.w3.org/1999/xlink" x="0px" y="0px"
	 width="50px" height="50px" viewBox="0 0 50 50" enable-background="new 0 0 50 50" xml:space="preserve">
<g>
	<path fill="#FCF06B" d="M29.084,4.429l3.102-1.413C31.619,5.161,30.9,7.289,30.9,9.531c0,6.95,5.635,12.583,12.587,12.583
		c2.243,0,4.369-0.719,6.515-1.285c-2.967,6.511-6.694,11.724-14.818,11.724c-8.132,0-14.724-6.592-14.724-14.722
		C20.46,11.873,23.999,6.745,29.084,4.429L29.084,4.429z"/>
	<path fill="#A3A3A3" d="M10.991,22.127c1.269-3.636,4.724-6.243,8.792-6.243c1.133,0,2.221,0.203,3.229,0.576
		c1.488-1.01,3.286-1.601,5.218-1.601c4.477,0,8.215,3.16,9.106,7.369c4.212,0.892,7.37,4.632,7.37,9.107
		c0,5.143-4.166,9.306-9.308,9.306H12.359c-5.14,0-9.308-4.163-9.308-9.306C3.051,26.659,6.5,22.788,10.991,22.127L10.991,22.127z"
		/>
	<path fill="#ECECEC" d="M13.386,25.017c0.092-3.454,2.92-6.226,6.398-6.226c1.357,0,2.615,0.424,3.65,1.142
		c1.171-1.326,2.888-2.167,4.798-2.167c3.536,0,6.403,2.865,6.403,6.4c0,0.278-0.019,0.552-0.053,0.821
		c0.271-0.035,0.542-0.052,0.822-0.052c3.535,0,6.401,2.864,6.401,6.401c0,3.533-2.866,6.401-6.401,6.401
		c-3.534,0-19.566,0-23.042,0c-3.535,0-6.403-2.868-6.403-6.401c0-3.537,2.868-6.401,6.403-6.401
		C12.708,24.935,13.051,24.963,13.386,25.017L13.386,25.017z"/>
	<path fill="#A3A3A3" d="M6.7,31.072c1.412-2.299,3.952-3.83,6.848-3.83c3.853,0,7.073,2.707,7.852,6.327l-3.841-2.119
		c0.866-0.315,1.795-0.485,2.762-0.485c4.423,0,8.028,3.575,8.028,8.01c0,4.434-3.604,8.01-8.028,8.01H8.028
		C3.604,46.984,0,43.406,0,38.973C0,34.992,2.905,31.703,6.7,31.072L6.7,31.072z"/>
	<path fill="#ECECEC" d="M18.555,34.182c0.549-0.201,1.143-0.311,1.764-0.311c2.827,0,5.12,2.283,5.12,5.104
		c0,2.818-2.293,5.104-5.12,5.104c-2.459,0-9.93,0-12.291,0c-2.827,0-5.119-2.283-5.119-5.104c0-2.818,2.293-5.104,5.119-5.104
		c0.196,0,0.39,0.012,0.58,0.029c0.596-2.162,2.581-3.752,4.94-3.752C16.007,30.148,18.061,31.877,18.555,34.182L18.555,34.182z"/>
	<path fill="none" d="M28.172,40.643c-0.771,3.627-4.002,6.342-7.853,6.342H8.028C3.604,46.984,0,43.406,0,38.973
		c0-2.592,1.23-4.89,3.139-6.354c-0.059-0.423-0.088-0.849-0.088-1.284c0-4.675,3.45-8.547,7.941-9.209
		c1.269-3.636,4.724-6.243,8.793-6.243c0.271,0,0.536,0.012,0.799,0.033c0.666-5.127,3.969-9.424,8.501-11.49l3.1-1.408
		C31.619,5.161,30.9,7.289,30.9,9.531c0,2.361,0.651,4.569,1.782,6.458c1.683,0.92,3.054,2.342,3.903,4.067
		c1.981,1.299,4.354,2.057,6.901,2.057c2.243,0,4.369-0.719,6.515-1.285c-1.498,3.286-3.188,6.24-5.539,8.364
		c0.162,0.689,0.248,1.408,0.248,2.144c0,5.143-4.166,9.306-9.309,9.306L28.172,40.643L28.172,40.643z"/>
</g>
</svg>
