<?xml version="1.0" encoding="utf-8"?>
<!-- Generator: Adobe Illustrator 16.0.4, SVG Export Plug-In . SVG Version: 6.00 Build 0)  -->
<!DOCTYPE svg PUBLIC "-//W3C//DTD SVG 1.1//EN" "http://www.w3.org/Graphics/SVG/1.1/DTD/svg11.dtd">
<svg version="1.1" id="Layer_1" xmlns="http://www.w3.org/2000/svg" xmlns:xlink="http://www.w3.org/1999/xlink" x="0px" y="0px"
	 width="50px" height="50px" viewBox="0 0 50 50" enable-background="new 0 0 50 50" xml:space="preserve">
<g>
	<path fill="#FCF06B" d="M28.879,1.342L31.824,0c-0.537,2.037-1.22,4.058-1.22,6.188c0,6.601,5.352,11.951,11.954,11.951
		c2.131,0,4.15-0.683,6.188-1.221c-2.816,6.185-6.357,11.139-14.074,11.139c-7.723,0-13.984-6.264-13.984-13.987
		C20.688,8.413,24.049,3.542,28.879,1.342L28.879,1.342z"/>
	<path fill="#A3A3A3" d="M11.696,18.151c1.205-3.45,4.485-5.93,8.35-5.93c1.076,0,2.109,0.193,3.067,0.546
		c1.413-0.958,3.122-1.52,4.955-1.52c4.251,0,7.802,3.001,8.649,7c4,0.843,6.999,4.394,6.999,8.645c0,4.885-3.956,8.84-8.84,8.84
		H12.994c-4.882,0-8.841-3.955-8.841-8.84C4.153,22.455,7.429,18.779,11.696,18.151L11.696,18.151z"/>
	<path fill="#ECECEC" d="M13.969,20.896c0.087-3.28,2.772-5.91,6.077-5.91c1.289,0,2.483,0.4,3.467,1.081
		c1.113-1.257,2.743-2.056,4.558-2.056c3.357,0,6.082,2.724,6.082,6.078c0,0.264-0.019,0.524-0.049,0.782
		c0.256-0.033,0.515-0.049,0.78-0.049c3.358,0,6.083,2.721,6.083,6.078c0,3.359-2.725,6.082-6.083,6.082c-3.356,0-18.583,0-21.884,0
		c-3.357,0-6.08-2.723-6.08-6.082c0-3.356,2.724-6.078,6.08-6.078C13.326,20.818,13.651,20.845,13.969,20.896L13.969,20.896z"/>
	<path fill="#A3A3A3" d="M7.619,26.646c1.341-2.183,3.753-3.637,6.504-3.637c3.659,0,6.718,2.57,7.458,6.011l-3.648-2.016
		c0.824-0.3,1.706-0.458,2.625-0.458c4.2,0,7.625,3.393,7.625,7.604s-3.424,7.608-7.625,7.608H8.881
		c-4.202,0-7.626-3.396-7.626-7.608C1.255,30.371,4.014,27.247,7.619,26.646L7.619,26.646z"/>
	<path fill="#ECECEC" d="M18.878,29.6c0.522-0.19,1.085-0.295,1.677-0.295c2.684,0,4.861,2.168,4.861,4.847
		s-2.178,4.851-4.861,4.851c-2.337,0-9.431,0-11.674,0c-2.684,0-4.861-2.17-4.861-4.851c0-2.676,2.178-4.847,4.861-4.847
		c0.187,0,0.37,0.012,0.55,0.031c0.563-2.059,2.451-3.567,4.69-3.567C16.458,25.773,18.409,27.413,18.878,29.6L18.878,29.6z"/>
	<path fill="#4897FF" d="M18.715,42.219c0.369,0.693,0.575,1.485,0.575,2.319c0,2.744-2.226,4.971-4.972,4.971
		c-2.747,0-4.972-2.227-4.972-4.971c0-0.834,0.209-1.626,0.573-2.319l3.048-5.742c0,0,0.465-0.994,1.35-0.994
		c0.93,0,1.365,0.994,1.365,0.994L18.715,42.219L18.715,42.219z"/>
</g>
</svg>
