<?xml version="1.0" encoding="utf-8"?>
<!-- Generator: Adobe Illustrator 16.0.4, SVG Export Plug-In . SVG Version: 6.00 Build 0)  -->
<!DOCTYPE svg PUBLIC "-//W3C//DTD SVG 1.1//EN" "http://www.w3.org/Graphics/SVG/1.1/DTD/svg11.dtd">
<svg version="1.1" id="Layer_1" xmlns="http://www.w3.org/2000/svg" xmlns:xlink="http://www.w3.org/1999/xlink" x="0px" y="0px"
	 width="50px" height="50px" viewBox="0 0 50 50" enable-background="new 0 0 50 50" xml:space="preserve">
<g>
	<path fill="#FCF06B" d="M29.083,3.505l3.103-1.414c-0.57,2.145-1.286,4.272-1.286,6.516c0,6.95,5.636,12.583,12.585,12.583
		c2.244,0,4.371-0.719,6.517-1.285c-2.968,6.511-6.694,11.724-14.817,11.724c-8.132,0-14.724-6.591-14.724-14.722
		C20.459,10.949,23.999,5.821,29.083,3.505L29.083,3.505z"/>
	<path fill="#A3A3A3" d="M10.991,21.203c1.267-3.636,4.721-6.244,8.792-6.244c1.133,0,2.223,0.204,3.229,0.576
		c1.488-1.009,3.286-1.6,5.216-1.6c4.476,0,8.213,3.16,9.105,7.37c4.211,0.892,7.37,4.63,7.37,9.106
		c0,5.142-4.167,9.308-9.308,9.308H12.359c-5.14,0-9.308-4.166-9.308-9.308C3.049,25.735,6.499,21.864,10.991,21.203L10.991,21.203z
		"/>
	<path fill="#ECECEC" d="M13.385,24.093c0.092-3.454,2.917-6.226,6.398-6.226c1.356,0,2.615,0.423,3.649,1.142
		c1.173-1.328,2.888-2.167,4.799-2.167c3.534,0,6.404,2.866,6.404,6.4c0,0.278-0.021,0.552-0.052,0.82
		c0.27-0.035,0.542-0.051,0.821-0.051c3.533,0,6.404,2.867,6.404,6.4c0,3.534-2.868,6.402-6.404,6.402c-3.537,0-19.566,0-23.042,0
		c-3.535,0-6.402-2.868-6.402-6.402c0-3.533,2.867-6.4,6.402-6.4C12.708,24.011,13.051,24.04,13.385,24.093L13.385,24.093z"/>
	<path fill="#A3A3A3" d="M6.7,30.146c1.412-2.297,3.952-3.828,6.849-3.828c3.851,0,7.073,2.705,7.851,6.327l-3.841-2.12
		c0.869-0.316,1.795-0.485,2.764-0.485c4.421,0,8.029,3.576,8.029,8.009c0,4.434-3.608,8.012-8.029,8.012H8.028
		C3.604,46.061,0,42.482,0,38.049C0,34.07,2.905,30.781,6.7,30.146L6.7,30.146z"/>
	<path fill="#ECECEC" d="M18.555,33.258c0.549-0.201,1.143-0.312,1.767-0.312c2.824,0,5.117,2.285,5.117,5.104
		s-2.293,5.104-5.117,5.104c-2.462,0-9.93,0-12.292,0c-2.825,0-5.118-2.284-5.118-5.104c0-2.816,2.293-5.104,5.118-5.104
		c0.196,0,0.39,0.013,0.579,0.031c0.595-2.162,2.58-3.75,4.939-3.75C16.007,29.228,18.061,30.953,18.555,33.258L18.555,33.258z"/>
	<polygon fill="#4897FF" points="25.894,32.064 27.97,33.807 28.439,31.139 34.432,32.194 33.961,34.863 36.509,33.936 
		38.589,39.652 36.041,40.58 38.117,42.322 34.206,46.982 32.131,45.24 31.66,47.908 25.67,46.85 26.141,44.184 23.593,45.109 
		21.513,39.395 24.06,38.469 21.983,36.725 	"/>
	<polygon fill="#FFFFFF" points="23.739,36.573 26.048,33.822 28.823,36.15 29.451,32.584 32.988,33.205 32.357,36.773 
		35.764,35.532 36.99,38.908 33.586,40.146 36.361,42.475 34.055,45.227 31.277,42.898 30.648,46.465 27.114,45.842 27.744,42.273 
		24.337,43.512 23.111,40.139 26.514,38.9 	"/>
</g>
</svg>
