<?xml version="1.0" encoding="utf-8"?>
<!-- Generator: Adobe Illustrator 16.0.4, SVG Export Plug-In . SVG Version: 6.00 Build 0)  -->
<!DOCTYPE svg PUBLIC "-//W3C//DTD SVG 1.1//EN" "http://www.w3.org/Graphics/SVG/1.1/DTD/svg11.dtd">
<svg version="1.1" id="Layer_1" xmlns="http://www.w3.org/2000/svg" xmlns:xlink="http://www.w3.org/1999/xlink" x="0px" y="0px"
	 width="50px" height="50px" viewBox="0 0 50 50" enable-background="new 0 0 50 50" xml:space="preserve">
<g>
	<path fill="#FCF06B" d="M28.854,1.334L31.781,0c-0.538,2.024-1.213,4.029-1.213,6.146c0,6.562,5.318,11.879,11.877,11.879
		c2.117,0,4.125-0.682,6.15-1.212c-2.801,6.146-6.318,11.065-13.984,11.065c-7.675,0-13.896-6.221-13.896-13.895
		C20.714,8.359,24.055,3.521,28.854,1.334L28.854,1.334z"/>
	<path fill="#A3A3A3" d="M11.779,18.037c1.196-3.431,4.456-5.893,8.298-5.893c1.07,0,2.096,0.192,3.047,0.541
		c1.404-0.952,3.102-1.51,4.922-1.51c4.225,0,7.752,2.985,8.594,6.955c3.975,0.842,6.955,4.37,6.955,8.593
		c0,4.854-3.932,8.782-8.783,8.782H13.07c-4.851,0-8.785-3.929-8.785-8.782C4.284,22.313,7.539,18.661,11.779,18.037L11.779,18.037z
		"/>
	<path fill="#ECECEC" d="M14.038,20.765c0.087-3.26,2.754-5.876,6.039-5.876c1.28,0,2.468,0.4,3.444,1.078
		c1.106-1.252,2.725-2.043,4.529-2.043c3.336,0,6.044,2.704,6.044,6.039c0,0.262-0.019,0.521-0.048,0.774
		c0.254-0.028,0.512-0.049,0.774-0.049c3.335,0,6.044,2.707,6.044,6.043c0,3.338-2.707,6.041-6.044,6.041
		c-3.338,0-18.466,0-21.746,0c-3.336,0-6.041-2.703-6.041-6.041c0-3.335,2.705-6.043,6.041-6.043
		C13.399,20.687,13.723,20.713,14.038,20.765L14.038,20.765z"/>
	<path fill="#A3A3A3" d="M7.729,26.479c1.333-2.17,3.729-3.611,6.464-3.611c3.635,0,6.675,2.553,7.41,5.972l-3.626-2.002
		c0.82-0.299,1.696-0.459,2.609-0.459c4.172,0,7.578,3.375,7.578,7.561c0,4.184-3.405,7.561-7.578,7.561H8.982
		c-4.176-0.003-7.577-3.38-7.577-7.564C1.406,30.182,4.147,27.074,7.729,26.479L7.729,26.479z"/>
	<path fill="#ECECEC" d="M18.917,29.413c0.519-0.19,1.079-0.294,1.667-0.294c2.666,0,4.83,2.154,4.83,4.816
		c0,2.658-2.164,4.816-4.83,4.816c-2.324,0-9.372,0-11.601,0c-2.666,0-4.83-2.156-4.83-4.816c0-2.659,2.164-4.816,4.83-4.816
		c0.185,0,0.367,0.012,0.548,0.027c0.56-2.039,2.435-3.539,4.661-3.539C16.513,25.609,18.451,27.24,18.917,29.413L18.917,29.413z"/>
	<path fill="#4897FF" d="M18.519,42.264c0.368,0.69,0.571,1.477,0.571,2.309c0,2.731-2.211,4.938-4.94,4.938
		c-2.729,0-4.94-2.207-4.94-4.938c0-0.832,0.208-1.617,0.571-2.309l3.028-5.705c0,0,0.462-0.983,1.34-0.983
		c0.925,0,1.358,0.983,1.358,0.983L18.519,42.264L18.519,42.264z"/>
	<path fill="#4897FF" d="M32.32,40.306c0.324,0.621,0.512,1.331,0.512,2.081c0,2.451-1.99,4.441-4.441,4.441
		c-2.457,0-4.447-1.99-4.447-4.441c0-0.747,0.185-1.455,0.515-2.081l2.724-5.132c0,0,0.415-0.887,1.206-0.887
		c0.83,0,1.218,0.887,1.218,0.887L32.32,40.306L32.32,40.306z"/>
</g>
</svg>
