<?xml version="1.0" encoding="utf-8"?>
<!-- Generator: Adobe Illustrator 16.0.4, SVG Export Plug-In . SVG Version: 6.00 Build 0)  -->
<!DOCTYPE svg PUBLIC "-//W3C//DTD SVG 1.1//EN" "http://www.w3.org/Graphics/SVG/1.1/DTD/svg11.dtd">
<svg version="1.1" id="Layer_1" xmlns="http://www.w3.org/2000/svg" xmlns:xlink="http://www.w3.org/1999/xlink" x="0px" y="0px"
	 width="50px" height="50px" viewBox="0 0 50 50" enable-background="new 0 0 50 50" xml:space="preserve">
<g>
	<path fill="#FCF06B" d="M28.924,1.358L31.904,0c-0.545,2.061-1.234,4.105-1.234,6.26c0,6.678,5.414,12.091,12.094,12.091
		c2.155,0,4.199-0.691,6.261-1.234c-2.851,6.257-6.433,11.271-14.239,11.271c-7.813,0-14.147-6.337-14.147-14.151
		C20.638,8.511,24.038,3.584,28.924,1.358L28.924,1.358z"/>
	<path fill="#A3A3A3" d="M11.539,18.364c1.219-3.489,4.537-6,8.449-6c1.089,0,2.134,0.196,3.103,0.553
		c1.43-0.97,3.158-1.538,5.011-1.538c4.301,0,7.894,3.036,8.75,7.082c4.047,0.852,7.082,4.443,7.082,8.744
		c0,4.941-4.003,8.943-8.943,8.943H12.854c-4.939,0-8.944-4.002-8.944-8.943C3.909,22.718,7.224,19,11.539,18.364L11.539,18.364z"/>
	<path fill="#ECECEC" d="M13.84,21.141c0.088-3.319,2.804-5.978,6.147-5.978c1.304,0,2.513,0.406,3.507,1.093
		c1.126-1.271,2.774-2.081,4.611-2.081c3.397,0,6.155,2.755,6.155,6.15c0,0.267-0.021,0.529-0.051,0.791
		c0.26-0.033,0.521-0.05,0.789-0.05c3.397,0,6.154,2.753,6.154,6.149S38.398,33.371,35,33.371c-3.395,0-18.8,0-22.14,0
		c-3.397,0-6.152-2.756-6.152-6.155c0-3.399,2.755-6.149,6.152-6.149C13.189,21.062,13.518,21.089,13.84,21.141L13.84,21.141z"/>
	<path fill="#A3A3A3" d="M7.416,26.959c1.357-2.209,3.797-3.681,6.58-3.681c3.702,0,6.796,2.599,7.545,6.081l-3.691-2.037
		c0.835-0.305,1.725-0.464,2.656-0.464c4.248,0,7.713,3.433,7.713,7.692c0,4.262-3.465,7.697-7.713,7.697H8.692
		c-4.25,0-7.714-3.436-7.714-7.697C0.978,30.726,3.769,27.565,7.416,26.959L7.416,26.959z"/>
	<path fill="#ECECEC" d="M18.807,29.945c0.528-0.192,1.098-0.297,1.697-0.297c2.714,0,4.917,2.193,4.917,4.902
		c0,2.707-2.203,4.908-4.917,4.908c-2.366,0-9.542,0-11.812,0c-2.714,0-4.916-2.195-4.916-4.908c0-2.706,2.204-4.902,4.916-4.902
		c0.189,0,0.375,0.01,0.557,0.029c0.572-2.082,2.479-3.609,4.746-3.609C16.359,26.074,18.332,27.733,18.807,29.945L18.807,29.945z"
		/>
	<path fill="#4897FF" d="M37.48,41.087c0.334,0.632,0.525,1.351,0.525,2.119c0,2.493-2.027,4.521-4.523,4.521
		c-2.5,0-4.525-2.027-4.525-4.521c0-0.763,0.189-1.482,0.521-2.119l2.777-5.227c0,0,0.422-0.903,1.229-0.903
		c0.845,0,1.238,0.903,1.238,0.903L37.48,41.087L37.48,41.087z"/>
	<path fill="#4897FF" d="M18.401,42.129c0.375,0.694,0.582,1.5,0.582,2.347c0,2.776-2.251,5.028-5.03,5.028
		c-2.78,0-5.03-2.252-5.03-5.028c0-0.847,0.212-1.649,0.58-2.347l3.084-5.811c0,0,0.47-1.002,1.365-1.002
		c0.939,0,1.381,1.002,1.381,1.002L18.401,42.129L18.401,42.129z"/>
	<polygon fill="#4897FF" points="22.625,28.662 24.62,30.337 25.072,27.771 30.828,28.787 30.375,31.353 32.822,30.461 
		34.824,35.955 32.377,36.845 34.371,38.52 30.613,42.996 28.618,41.324 28.166,43.887 22.41,42.871 22.862,40.309 20.415,41.198 
		18.416,35.705 20.863,34.814 18.868,33.141 	"/>
	<polygon fill="#FFFFFF" points="20.555,32.992 22.773,30.351 25.439,32.588 26.043,29.159 29.44,29.76 28.837,33.187 
		32.107,31.996 33.288,35.238 30.017,36.43 32.682,38.666 30.467,41.309 27.799,39.072 27.195,42.499 23.798,41.9 24.401,38.472 
		21.131,39.663 19.951,36.422 23.222,35.23 	"/>
</g>
</svg>
