<?xml version="1.0" encoding="utf-8"?>
<!-- Generator: Adobe Illustrator 16.0.4, SVG Export Plug-In . SVG Version: 6.00 Build 0)  -->
<!DOCTYPE svg PUBLIC "-//W3C//DTD SVG 1.1//EN" "http://www.w3.org/Graphics/SVG/1.1/DTD/svg11.dtd">
<svg version="1.1" id="Layer_1" xmlns="http://www.w3.org/2000/svg" xmlns:xlink="http://www.w3.org/1999/xlink" x="0px" y="0px"
	 width="50px" height="50px" viewBox="0 0 50 50" enable-background="new 0 0 50 50" xml:space="preserve">
<g>
	<path fill="#FCF06B" d="M28.928,1.359L31.91,0c-0.545,2.062-1.234,4.109-1.234,6.267c0,6.688,5.419,12.105,12.105,12.105
		c2.156,0,4.202-0.695,6.266-1.235c-2.854,6.262-6.438,11.278-14.252,11.278c-7.821,0-14.162-6.341-14.162-14.162
		C20.633,8.519,24.037,3.588,28.928,1.359L28.928,1.359z"/>
	<path fill="#A3A3A3" d="M11.526,18.381c1.22-3.496,4.541-6.005,8.457-6.005c1.09,0,2.137,0.195,3.106,0.551
		c1.431-0.97,3.161-1.539,5.017-1.539c4.305,0,7.9,3.042,8.758,7.088c4.051,0.856,7.088,4.451,7.088,8.755
		c0,4.945-4.006,8.949-8.951,8.949H12.842c-4.944,0-8.953-4.005-8.953-8.949C3.889,22.741,7.206,19.017,11.526,18.381L11.526,18.381
		z"/>
	<path fill="#ECECEC" d="M13.83,21.161c0.088-3.322,2.806-5.987,6.153-5.987c1.306,0,2.515,0.408,3.511,1.097
		c1.127-1.275,2.778-2.083,4.616-2.083c3.4,0,6.16,2.757,6.16,6.155c0,0.267-0.02,0.531-0.051,0.791
		c0.261-0.03,0.521-0.051,0.791-0.051c3.4,0,6.16,2.758,6.16,6.16c0,3.4-2.758,6.156-6.16,6.156c-3.4,0-18.818,0-22.161,0
		c-3.4,0-6.158-2.758-6.158-6.156c0-3.4,2.758-6.16,6.158-6.16C13.178,21.082,13.507,21.109,13.83,21.161L13.83,21.161z"/>
	<path fill="#A3A3A3" d="M7.398,26.984c1.358-2.211,3.801-3.68,6.586-3.68c3.705,0,6.803,2.602,7.552,6.086l-3.695-2.039
		c0.835-0.305,1.727-0.467,2.659-0.467c4.252,0,7.722,3.439,7.722,7.703s-3.47,7.705-7.722,7.705H8.676
		c-4.255-0.003-7.722-3.444-7.722-7.708C0.955,30.756,3.749,27.592,7.398,26.984L7.398,26.984z"/>
	<path fill="#ECECEC" d="M18.801,29.975c0.528-0.193,1.1-0.299,1.699-0.299c2.716,0,4.922,2.193,4.922,4.909
		c0,2.71-2.206,4.909-4.922,4.909c-2.368,0-9.55,0-11.823,0c-2.716,0-4.921-2.197-4.921-4.909c0-2.71,2.206-4.909,4.921-4.909
		c0.189,0,0.375,0.012,0.557,0.027c0.572-2.081,2.482-3.609,4.75-3.609C16.35,26.1,18.326,27.76,18.801,29.975L18.801,29.975z"/>
	<path fill="#4897FF" d="M17.746,42.174c0.3,0.56,0.465,1.201,0.465,1.88c0,2.229-1.804,4.026-4.027,4.026
		c-2.225,0-4.028-1.798-4.028-4.026c0-0.679,0.168-1.319,0.464-1.88l2.47-4.651c0,0,0.376-0.804,1.094-0.804
		c0.752,0,1.106,0.804,1.106,0.804L17.746,42.174L17.746,42.174z"/>
	<polygon fill="#FCF06B" points="21.232,37.391 25.711,22.094 35.175,22.094 33.488,28.271 40.161,28.271 29.964,50.023 
		27.837,37.268 	"/>
	<polygon fill="#E3303D" points="27.214,24.161 23.845,35.672 29.521,35.566 30.924,43.994 37.322,30.338 31.146,30.338 
		32.83,24.161 	"/>
</g>
</svg>
