<?xml version="1.0" encoding="utf-8"?>
<!-- Generator: Adobe Illustrator 16.0.4, SVG Export Plug-In . SVG Version: 6.00 Build 0)  -->
<!DOCTYPE svg PUBLIC "-//W3C//DTD SVG 1.1//EN" "http://www.w3.org/Graphics/SVG/1.1/DTD/svg11.dtd">
<svg version="1.1" id="Layer_1" xmlns="http://www.w3.org/2000/svg" xmlns:xlink="http://www.w3.org/1999/xlink" x="0px" y="0px"
	 width="50px" height="50px" viewBox="0 0 50 50" enable-background="new 0 0 50 50" xml:space="preserve">
<g>
	<path fill="#8F8F8F" d="M10.14,8.379c1.462-4.191,5.447-7.198,10.138-7.198c1.307,0,2.56,0.234,3.723,0.664
		C25.714,0.682,27.787,0,30.016,0c5.156,0,9.467,3.643,10.494,8.496c4.857,1.028,8.498,5.338,8.498,10.497
		c0,5.927-4.801,10.729-10.732,10.729H11.717c-5.926,0-10.731-4.804-10.731-10.729C0.986,13.603,4.96,9.141,10.14,8.379L10.14,8.379
		z"/>
	<path fill="#CECECE" d="M12.901,11.711c0.105-3.983,3.366-7.177,7.376-7.177c1.567,0,3.019,0.486,4.207,1.316
		c1.353-1.532,3.329-2.498,5.536-2.498c4.076,0,7.383,3.303,7.383,7.379c0,0.32-0.021,0.636-0.062,0.945
		c0.308-0.04,0.62-0.059,0.944-0.059c4.072,0,7.381,3.303,7.381,7.377c0,4.076-3.307,7.377-7.381,7.377c-4.075,0-22.559,0-26.567,0
		c-4.071,0-7.38-3.306-7.38-7.377c0-4.074,3.306-7.377,7.38-7.377C12.12,11.616,12.515,11.647,12.901,11.711L12.901,11.711z"/>
	<path fill="#8F8F8F" d="M10.938,22.326c1.629-2.65,4.557-4.415,7.896-4.415c4.44,0,8.154,3.12,9.053,7.296l-4.429-2.445
		c0.998-0.364,2.069-0.562,3.183-0.562c5.104,0,9.256,4.124,9.256,9.235c0,5.11-4.152,9.231-9.256,9.231H12.469
		c-5.101,0-9.255-4.121-9.255-9.231C3.214,26.848,6.562,23.053,10.938,22.326L10.938,22.326z"/>
	<path fill="#CECECE" d="M24.604,25.908c0.633-0.23,1.317-0.356,2.033-0.356c3.26,0,5.901,2.634,5.901,5.884
		c0,3.248-2.644,5.885-5.901,5.885c-2.836,0-11.448,0-14.169,0c-3.26,0-5.902-2.635-5.902-5.885c0-3.248,2.644-5.884,5.902-5.884
		c0.222,0,0.446,0.013,0.665,0.036c0.686-2.492,2.973-4.324,5.694-4.324C21.666,21.265,24.035,23.255,24.604,25.908L24.604,25.908z"
		/>
	<path fill="#4897FF" d="M24.27,41.15c0.444,0.842,0.695,1.802,0.695,2.816c0,3.332-2.7,6.033-6.035,6.033
		c-3.333,0-6.035-2.701-6.035-6.033c0-1.017,0.251-1.977,0.698-2.816l3.701-6.971c0,0,0.562-1.203,1.638-1.203
		c1.13,0,1.657,1.203,1.657,1.203L24.27,41.15L24.27,41.15z"/>
</g>
</svg>
