<?xml version="1.0" encoding="utf-8"?>
<!-- Generator: Adobe Illustrator 16.0.4, SVG Export Plug-In . SVG Version: 6.00 Build 0)  -->
<!DOCTYPE svg PUBLIC "-//W3C//DTD SVG 1.1//EN" "http://www.w3.org/Graphics/SVG/1.1/DTD/svg11.dtd">
<svg version="1.1" id="Layer_1" xmlns="http://www.w3.org/2000/svg" xmlns:xlink="http://www.w3.org/1999/xlink" x="0px" y="0px"
	 width="50.0px" height="50.0px" viewBox="0 0 35.426 42.761" enable-background="new 0 0 35.426 42.761" xml:space="preserve">
<g>
	<path fill="#8F8F8F" d="M6.635,6.073c1.059-3.038,3.948-5.217,7.347-5.217c0.947,0,1.856,0.17,2.698,0.482
		C17.923,0.494,19.426,0,21.041,0c3.74,0,6.865,2.64,7.609,6.158c3.52,0.745,6.158,3.868,6.158,7.608
		c0,4.296-3.482,7.777-7.777,7.777H7.778C3.483,21.544,0,18.062,0,13.767C0,9.859,2.882,6.625,6.635,6.073L6.635,6.073z"/>
	<path fill="#CECECE" d="M8.636,8.488c0.077-2.886,2.441-5.202,5.346-5.202c1.133,0,2.185,0.353,3.049,0.954
		c0.98-1.109,2.415-1.809,4.01-1.809c2.955,0,5.348,2.394,5.348,5.347c0,0.232-0.014,0.461-0.043,0.686
		c0.225-0.029,0.453-0.043,0.688-0.043c2.95,0,5.348,2.394,5.348,5.347c0,2.954-2.396,5.348-5.348,5.348c-2.953,0-16.348,0-19.253,0
		c-2.953,0-5.348-2.394-5.348-5.348c0-2.953,2.395-5.347,5.348-5.347C8.07,8.419,8.356,8.442,8.636,8.488L8.636,8.488z"/>
	<path fill="#8F8F8F" d="M7.213,16.182c1.18-1.92,3.302-3.199,5.722-3.199c3.218,0,5.911,2.261,6.559,5.287l-3.209-1.772
		c0.723-0.264,1.5-0.407,2.306-0.407c3.698,0,6.709,2.989,6.709,6.694c0,3.705-3.012,6.693-6.709,6.693H8.323
		c-3.697,0-6.708-2.988-6.708-6.693C1.615,19.459,4.042,16.71,7.213,16.182L7.213,16.182z"/>
	<path fill="#CECECE" d="M17.119,18.78c0.459-0.168,0.955-0.259,1.472-0.259c2.364,0,4.28,1.909,4.28,4.264
		c0,2.355-1.916,4.264-4.28,4.264c-2.054,0-8.297,0-10.268,0c-2.363,0-4.278-1.906-4.278-4.264c0-2.354,1.916-4.264,4.278-4.264
		c0.164,0,0.326,0.009,0.485,0.027c0.497-1.807,2.156-3.135,4.127-3.135C14.99,15.413,16.706,16.855,17.119,18.78L17.119,18.78z"/>
	<polygon fill="#4897FF" points="18.37,32 20.213,32.669 19.873,30.737 24.582,29.908 24.924,31.839 26.426,30.578 29.5,34.242 
		27.998,35.503 29.842,36.173 28.205,40.669 26.361,39.998 26.703,41.93 21.992,42.761 21.652,40.828 20.148,42.089 17.074,38.425 
		18.577,37.164 16.733,36.494 	"/>
	<polygon fill="#FFFFFF" points="18.069,35.871 18.992,33.333 21.553,34.266 21.078,31.583 23.738,31.115 24.211,33.796 
		26.297,32.046 28.033,34.115 25.947,35.865 28.506,36.796 27.582,39.333 25.023,38.402 25.496,41.085 22.838,41.554 22.363,38.871 
		20.277,40.623 18.542,38.554 20.629,36.802 	"/>
	<polygon fill="#4897FF" points="24.818,17.077 26.553,18.532 26.947,16.302 31.953,17.185 31.559,19.415 33.688,18.641 
		35.426,23.417 33.299,24.191 35.033,25.647 31.766,29.541 30.031,28.085 29.637,30.315 24.631,29.433 25.023,27.203 22.896,27.978 
		21.158,23.201 23.285,22.427 21.551,20.971 	"/>
	<polygon fill="#FFFFFF" points="23.02,20.843 24.947,18.544 27.266,20.49 27.791,17.509 30.746,18.03 30.221,21.011 33.064,19.976 
		34.09,22.794 31.246,23.83 33.564,25.775 31.637,28.074 29.318,26.128 28.793,29.109 25.838,28.587 26.363,25.607 23.52,26.643 
		22.494,23.824 25.338,22.789 	"/>
	<polygon fill="#4897FF" points="5.292,23.291 7.735,24.179 7.284,21.618 12.618,20.677 13.07,23.238 15.062,21.567 18.543,25.716 
		16.551,27.388 18.996,28.277 17.143,33.367 14.699,32.478 15.15,35.039 9.816,35.979 9.364,33.419 7.372,35.089 3.89,30.94 
		5.883,29.27 3.439,28.38 	"/>
	<polygon fill="#FFFFFF" points="4.774,27.757 5.914,24.625 9.075,25.775 8.491,22.462 11.773,21.884 12.357,25.196 14.934,23.035 
		17.076,25.587 14.5,27.75 17.66,28.9 16.52,32.033 13.36,30.882 13.944,34.194 10.661,34.772 10.077,31.46 7.5,33.623 
		5.358,31.069 7.935,28.908 	"/>
</g>
</svg>
