<?xml version="1.0" encoding="utf-8"?>
<!-- Generator: Adobe Illustrator 16.0.4, SVG Export Plug-In . SVG Version: 6.00 Build 0)  -->
<!DOCTYPE svg PUBLIC "-//W3C//DTD SVG 1.1//EN" "http://www.w3.org/Graphics/SVG/1.1/DTD/svg11.dtd">
<svg version="1.1" id="Layer_1" xmlns="http://www.w3.org/2000/svg" xmlns:xlink="http://www.w3.org/1999/xlink" x="0px" y="0px"
	 width="50px" height="50px" viewBox="0 0 50 50" enable-background="new 0 0 50 50" xml:space="preserve">
<g>
	<g id="MOON">
		<g>
			<path fill="#FCF06B" d="M15.695,2.707l4.995-2.276c-0.912,3.456-2.07,6.883-2.07,10.493c0,11.192,9.075,20.264,20.267,20.264
				c3.613,0,7.041-1.152,10.496-2.066C44.602,39.607,38.602,48.004,25.52,48.004C12.422,48.003,1.807,37.386,1.807,24.292
				C1.807,14.694,7.507,6.437,15.695,2.707L15.695,2.707z"/>
			<path fill="none" d="M15.695,2.707l4.995-2.276c-0.912,3.456-2.07,6.883-2.07,10.493c0,11.192,9.075,20.264,20.267,20.264
				c3.613,0,7.041-1.152,10.496-2.066C44.602,39.607,38.602,48.004,25.52,48.004C12.422,48.003,1.807,37.386,1.807,24.292
				C1.807,14.694,7.507,6.437,15.695,2.707L15.695,2.707z"/>
		</g>
	</g>
	<g id="ohut_yläpilvi">
		<g>
			<path fill="#A3A3A3" d="M44.586,5.034c0,0.855-0.674,1.553-1.52,1.595C43.041,6.63,22.365,6.631,22.338,6.631
				c-0.882,0-1.597-0.715-1.597-1.597c0-0.882,0.715-1.597,1.597-1.597c0.027,0,20.705,0.001,20.73,0.002
				C43.914,3.481,44.586,4.179,44.586,5.034z"/>
			<path fill="#A3A3A3" d="M28.001,21.167c0,0.855-0.674,1.553-1.519,1.595c-0.026,0.001-20.705,0.002-20.729,0.002
				c-0.882,0-1.597-0.715-1.597-1.597s0.715-1.598,1.597-1.598c0.027,0,20.705,0.001,20.731,0.002
				C27.33,19.614,28.001,20.312,28.001,21.167z"/>
			<path fill="#A3A3A3" d="M34.262,10.412c0,0.855-0.675,1.553-1.52,1.595c-0.026,0.001-31.028,0.002-31.054,0.002
				c-0.882,0-1.597-0.715-1.597-1.597s0.715-1.597,1.597-1.597c0.027,0,31.03,0.001,31.056,0.002
				C33.589,8.859,34.262,9.557,34.262,10.412z"/>
			<path fill="#A3A3A3" d="M49.749,15.79c0,0.855-0.674,1.553-1.519,1.595c-0.026,0.001-31.028,0.002-31.057,0.002
				c-0.882,0-1.597-0.715-1.597-1.597s0.715-1.597,1.597-1.597c0.027,0,31.03,0.001,31.059,0.002
				C49.077,14.237,49.749,14.934,49.749,15.79z"/>
		</g>
	</g>
</g>
</svg>
