<?xml version="1.0" encoding="utf-8"?>
<!-- Generator: Adobe Illustrator 24.0.3, SVG Export Plug-In . SVG Version: 6.00 Build 0)  -->
<svg version="1.1" id="Layer_1" xmlns="http://www.w3.org/2000/svg" xmlns:xlink="http://www.w3.org/1999/xlink" x="0px" y="0px"
	 viewBox="0 0 300 169.7" style="enable-background:new 0 0 300 169.7;" xml:space="preserve">

<path fill="#009D4D" d="M27.2,65.1C10.1,89.5,0,119.3,0,151.3h150.2l0,0L27.2,65.1z"/>
<path fill="#87C540" d="M103.5,8.7C72.3,18.9,45.7,38.9,27.2,65.1l123,86.2L103.5,8.7z"/>
<path fill="#F8971D" d="M197.2,8.9l-47,142.4h0.5L273,65.6C254.8,39.3,228.2,19.2,197.2,8.9z"/>
<path fill="#EF4223" d="M273.1,65.6l-122.3,85.7H300C300,119.5,290.1,89.9,273.1,65.6z"/>
<path fill="#D3DE25" d="M150,1.3c-16.3,0-31.9,2.6-46.5,7.4l46.8,142.6l0,0l0,0l47-142.4C182.4,4,166.5,1.3,150,1.3z"/>
<g fill-opacity="0.75">
	<path fill="#FFFFFF" d="M228.5,150.6c0-42.8-34.7-77.6-77.6-77.6c-42.8,0-77.6,34.7-77.6,77.6c0,0.3,0,0.5,0,0.8h155.1
		C228.5,151.2,228.5,150.9,228.5,150.6z"/>
</g>
<g>
	<path fill="#63656A" d="M156.1,134.3c8.8,2.5,13.7,12.2,11,21.7c-2.7,9.4-12,15.1-20.9,12.5c-8.8-2.5-85.4-34.4-82.7-43.8
		S147.2,131.7,156.1,134.3z"/>
	<g>
		<circle fill="#FFFFFF" cx="151" cy="151.4" r="9.2"/>
	</g>
</g>
</svg>