<?xml version="1.0" encoding="utf-8"?>
<!-- Generator: Adobe Illustrator 24.0.3, SVG Export Plug-In . SVG Version: 6.00 Build 0)  -->
<svg version="1.1" id="Layer_1" xmlns="http://www.w3.org/2000/svg" xmlns:xlink="http://www.w3.org/1999/xlink" x="0px" y="0px"
	 viewBox="0 0 300 169.7" style="enable-background:new 0 0 300 169.7;" xml:space="preserve">

<path fill="#009D4D" d="M27.2,66.1C10.1,90.5,0,120.3,0,152.3h150.2l0,0L27.2,66.1z"/>
<path fill="#87C540" d="M103.5,9.7C72.3,19.9,45.7,39.9,27.2,66.1l123,86.2L103.5,9.7z"/>
<path fill="#F8971D" d="M197.2,9.9l-47,142.4h0.5L273,66.6C254.8,40.3,228.2,20.2,197.2,9.9z"/>
<path fill="#EF4223" d="M273.1,66.6l-122.3,85.7H300C300,120.5,290.1,90.9,273.1,66.6z"/>
<path fill="#D3DE25" d="M150,2.3c-16.3,0-31.9,2.6-46.5,7.4l46.8,142.6l0,0l0,0l47-142.4C182.4,5,166.5,2.3,150,2.3z"/>
<g fill-opacity="0.75">
	<path fill="#FFFFFF" d="M227.5,151.6c0-42.8-34.7-77.6-77.6-77.6c-42.8,0-77.6,34.7-77.6,77.6c0,0.3,0,0.5,0,0.8h155.1
		C227.5,152.2,227.5,151.9,227.5,151.6z"/>
</g>
<g>
	<path fill="#63656A" d="M164.7,141.6c5.5,7.3,3.5,18.1-4.4,23.9c-7.9,5.9-18.7,4.7-24.2-2.7c-5.5-7.3-47-79.1-39.2-85
		C104.8,72,159.2,134.3,164.7,141.6z"/>
	<g>
		<circle fill="#FFFFFF" cx="150.3" cy="152.1" r="9.2"/>
	</g>
</g>
</svg>