<?xml version="1.0" encoding="utf-8"?>
<!-- Generator: Adobe Illustrator 24.0.3, SVG Export Plug-In . SVG Version: 6.00 Build 0)  -->
<svg version="1.1" id="Layer_1" xmlns="http://www.w3.org/2000/svg" xmlns:xlink="http://www.w3.org/1999/xlink" x="0px" y="0px"
	 viewBox="0 0 300 169.7" style="enable-background:new 0 0 300 169.7;" xml:space="preserve">

<g>
	<path fill="#009D4D" d="M27.2,66.1C10.1,90.5,0,120.3,0,152.3h150.2l0,0L27.2,66.1z"/>
	<g>
		<path fill="#87C540" d="M103.5,9.7C72.3,19.9,45.7,39.9,27.2,66.1l123,86.2L103.5,9.7z"/>
	</g>
	<path fill="#F8971D" d="M197.2,9.9l-47,142.4h0.5L273,66.6C254.8,40.3,228.2,20.2,197.2,9.9z"/>
	<path fill="#EF4223" d="M273.1,66.6l-122.3,85.7H300C300,120.5,290.1,90.9,273.1,66.6z"/>
	<path fill="#D3DE25" d="M150,2.3c-16.3,0-31.9,2.6-46.5,7.4l46.8,142.6l0,0l0,0l47-142.4C182.4,5,166.5,2.3,150,2.3z"/>
	<g fill-opacity="0.75">
		<path fill="#FFFFFF" d="M227.5,151.6c0-42.8-34.7-77.6-77.6-77.6c-42.8,0-77.6,34.7-77.6,77.6c0,0.3,0,0.5,0,0.8h155.1
			C227.5,152.2,227.5,151.9,227.5,151.6z"/>
	</g>
	<g>
		<path fill="#63656A" d="M203.3,77.8c7.8,5.9-33.7,77.7-39.2,85c-5.5,7.4-16.3,8.6-24.2,2.7c-7.9-5.8-9.9-16.6-4.4-23.9
			S195.4,72,203.3,77.8z"/>
		<g>
			<circle fill="#FFFFFF" cx="149.9" cy="152.1" r="9.2"/>
		</g>
	</g>
</g>
</svg>